<?xml version="1.0" encoding="utf-8"?>
<!-- Generator: Adobe Illustrator 25.4.1, SVG Export Plug-In . SVG Version: 6.00 Build 0)  -->
<svg version="1.1" id="Layer_1" xmlns="http://www.w3.org/2000/svg" xmlns:xlink="http://www.w3.org/1999/xlink" x="0px" y="0px"
	 viewBox="0 0 1440 1512" style="enable-background:new 0 0 1440 1512;" xml:space="preserve">
<style type="text/css">
	.st0{fill:#707070;}
	.st1{fill:none;stroke:#707070;stroke-width:58;stroke-linecap:round;stroke-linejoin:round;}
</style>
<g id="Group_571" transform="translate(-3272.086 -1874.939)">
	<g id="Ellipse_1660">
		<path class="st0" d="M3992.1,3350.9c-97.2,0-191.5-19-280.3-56.6c-85.7-36.3-162.7-88.2-228.9-154.3
			c-66.1-66.1-118-143.1-154.3-228.9c-37.6-88.8-56.6-183.1-56.6-280.3s19-191.5,56.6-280.3c36.3-85.7,88.2-162.7,154.3-228.9
			c66.1-66.1,143.1-118,228.9-154.3c88.8-37.6,183.1-56.6,280.3-56.6s191.5,19,280.3,56.6c85.7,36.3,162.7,88.2,228.9,154.3
			c66.1,66.1,118,143.1,154.3,228.9c37.6,88.8,56.6,183.1,56.6,280.3s-19,191.5-56.6,280.3c-36.3,85.7-88.2,162.7-154.3,228.9
			c-66.1,66.1-143.1,118-228.9,154.3C4183.6,3331.9,4089.3,3350.9,3992.1,3350.9z M3992.1,1966.7c-366.3,0-664.2,298-664.2,664.2
			s298,664.2,664.2,664.2s664.2-298,664.2-664.2S4358.4,1966.7,3992.1,1966.7z"/>
	</g>
	<g id="Path_3102">
		<path class="st0" d="M4533.7,2658.8c-15.4,0-27.9-12.5-27.9-27.9c0-283.3-230.5-513.8-513.8-513.8
			c-283.3,0-513.8,230.5-513.8,513.8c0,15.4-12.5,27.9-27.9,27.9s-27.9-12.5-27.9-27.9c0-76.9,15.1-151.5,44.8-221.7
			c28.7-67.8,69.7-128.7,122-181c52.3-52.3,113.2-93.4,181-122c70.2-29.7,144.8-44.8,221.7-44.8c76.9,0,151.5,15.1,221.7,44.8
			c67.8,28.7,128.7,69.7,181,122c52.3,52.3,93.4,113.2,122,181c29.7,70.2,44.8,144.8,44.8,221.7
			C4561.6,2646.3,4549.1,2658.8,4533.7,2658.8z"/>
	</g>
	<g id="Group_570">
		<g id="Line_256">
			<path class="st0" d="M3992.1,2688.9c-15.4,0-27.9-12.5-27.9-27.9v-300.9c0-15.4,12.5-27.9,27.9-27.9c15.4,0,27.9,12.5,27.9,27.9
				V2661C4020,2676.4,4007.5,2688.9,3992.1,2688.9z"/>
		</g>
		<g id="Ellipse_1661">
			<path class="st0" d="M3992.1,2869.5c-65.2,0-118.2-53-118.2-118.2s53-118.2,118.2-118.2c65.1,0,118.2,53,118.2,118.2
				S4057.2,2869.5,3992.1,2869.5z M3992.1,2688.9c-34.4,0-62.4,28-62.4,62.4c0,34.4,28,62.4,62.4,62.4c34.4,0,62.4-28,62.4-62.4
				C4054.5,2716.9,4026.5,2688.9,3992.1,2688.9z"/>
		</g>
	</g>
</g>
</svg>
