<svg xmlns="http://www.w3.org/2000/svg" width="18.013" height="20.603" viewBox="0 0 18.013 20.603">
  <g id="Group_138" data-name="Group 138" transform="translate(-3212.621 -903.104)">
    <g id="Group_137" data-name="Group 137">
      <path id="Rectangle_77" data-name="Rectangle 77" d="M1.149,0H16.114a1.149,1.149,0,0,1,1.149,1.149v1.44a0,0,0,0,1,0,0H0a0,0,0,0,1,0,0V1.149A1.149,1.149,0,0,1,1.149,0Z" transform="translate(3212.996 906.068)" fill="none" stroke="#58595b" stroke-linecap="round" stroke-linejoin="round" stroke-width="0.75"/>
      <path id="Path_813" data-name="Path 813" d="M3225.943,906.068h-8.631a2.589,2.589,0,0,1,2.589-2.589h3.453a2.589,2.589,0,0,1,2.589,2.589Z" fill="none" stroke="#58595b" stroke-linecap="round" stroke-linejoin="round" stroke-width="0.75"/>
      <path id="Path_814" data-name="Path 814" d="M3228.533,910.384V921.6a1.726,1.726,0,0,1-1.726,1.727h-10.358a1.727,1.727,0,0,1-1.727-1.727V910.384" fill="none" stroke="#58595b" stroke-linecap="round" stroke-linejoin="round" stroke-width="0.75"/>
      <line id="Line_64" data-name="Line 64" y2="7.769" transform="translate(3218.175 912.974)" fill="none" stroke="#58595b" stroke-linecap="round" stroke-linejoin="round" stroke-width="0.75"/>
      <line id="Line_65" data-name="Line 65" y2="7.769" transform="translate(3225.08 912.974)" fill="none" stroke="#58595b" stroke-linecap="round" stroke-linejoin="round" stroke-width="0.75"/>
      <line id="Line_66" data-name="Line 66" y2="7.769" transform="translate(3221.628 912.974)" fill="none" stroke="#58595b" stroke-linecap="round" stroke-linejoin="round" stroke-width="0.75"/>
    </g>
  </g>
</svg>
