<svg xmlns="http://www.w3.org/2000/svg" width="26.2" height="26.2" viewBox="0 0 26.2 26.2">
  <g id="Group_697" data-name="Group 697" transform="translate(-3673.55 -1373.742)">
    <g id="Group_695" data-name="Group 695">
      <path id="Path_3835" data-name="Path 3835" d="M3674.15,1386.842a12.5,12.5,0,0,1,23.914-5.1" fill="none" stroke="#90278e" stroke-linecap="round" stroke-linejoin="round" stroke-width="1.2"/>
      <g id="Group_693" data-name="Group 693">
        <line id="Line_299" data-name="Line 299" y2="5.435" transform="translate(3698.063 1376.516)" fill="none" stroke="#90278e" stroke-linecap="round" stroke-linejoin="round" stroke-width="1.2"/>
        <line id="Line_300" data-name="Line 300" x2="5.435" transform="translate(3692.629 1381.951)" fill="none" stroke="#90278e" stroke-linecap="round" stroke-linejoin="round" stroke-width="1.2"/>
      </g>
      <g id="Group_694" data-name="Group 694">
        <path id="Path_3836" data-name="Path 3836" d="M3675.237,1391.94a12.5,12.5,0,0,0,23.913-5.1" fill="none" stroke="#90278e" stroke-linecap="round" stroke-linejoin="round" stroke-width="1.2"/>
        <line id="Line_301" data-name="Line 301" y1="5.435" transform="translate(3675.238 1391.733)" fill="none" stroke="#90278e" stroke-linecap="round" stroke-linejoin="round" stroke-width="1.2"/>
        <line id="Line_302" data-name="Line 302" x1="5.435" transform="translate(3675.238 1391.733)" fill="none" stroke="#90278e" stroke-linecap="round" stroke-linejoin="round" stroke-width="1.2"/>
      </g>
    </g>
    <g id="Group_696" data-name="Group 696">
      <path id="Path_3837" data-name="Path 3837" d="M3682.954,1390.9a1.724,1.724,0,0,0,.54,1.211,5.649,5.649,0,0,0,6.99,0,1.724,1.724,0,0,0,.541-1.211" fill="none" stroke="#f6921e" stroke-linecap="round" stroke-linejoin="round" stroke-width="1.2"/>
      <path id="Path_3838" data-name="Path 3838" d="M3682.954,1386.058a1.723,1.723,0,0,0,.54,1.21,5.649,5.649,0,0,0,6.99,0,1.724,1.724,0,0,0,.541-1.21" fill="none" stroke="#f6921e" stroke-linecap="round" stroke-linejoin="round" stroke-width="1.2"/>
      <ellipse id="Ellipse_1959" data-name="Ellipse 1959" cx="4.036" cy="2.421" rx="4.036" ry="2.421" transform="translate(3682.954 1381.215)" fill="none" stroke="#f6921e" stroke-linecap="round" stroke-linejoin="round" stroke-width="1.2"/>
      <path id="Path_3839" data-name="Path 3839" d="M3682.954,1388.479a1.724,1.724,0,0,0,.54,1.211,5.652,5.652,0,0,0,6.99,0,1.724,1.724,0,0,0,.541-1.211" fill="none" stroke="#f6921e" stroke-linecap="round" stroke-linejoin="round" stroke-width="1.2"/>
      <path id="Path_3840" data-name="Path 3840" d="M3691.025,1383.636v7.264" fill="none" stroke="#f6921e" stroke-linecap="round" stroke-linejoin="round" stroke-width="1.2"/>
      <path id="Path_3841" data-name="Path 3841" d="M3682.954,1383.636v7.264" fill="none" stroke="#f6921e" stroke-linecap="round" stroke-linejoin="round" stroke-width="1.2"/>
    </g>
  </g>
</svg>
