<svg xmlns="http://www.w3.org/2000/svg" width="26.216" height="24.036" viewBox="0 0 26.216 24.036">
  <g id="Group_660" data-name="Group 660" transform="translate(-3673.542 -1488.484)">
    <path id="Path_3614" data-name="Path 3614" d="M3674.142,1493.443l0,2.174.013,14.131a2.181,2.181,0,0,0,2.176,2.172l20.653-.02a2.181,2.181,0,0,0,2.171-2.176l-.014-15.218a1.091,1.091,0,0,0-1.088-1.086l-4.348.005-16.3.015h-1.087" fill="none" stroke="#90278e" stroke-linecap="round" stroke-linejoin="round" stroke-width="1.2"/>
    <line id="Line_279" data-name="Line 279" y1="4.348" transform="translate(3674.151 1491.258)" fill="none" stroke="#90278e" stroke-linecap="round" stroke-linejoin="round" stroke-width="1.2"/>
    <path id="Path_3615" data-name="Path 3615" d="M3692.629,1505.388h6.522v-6.522h-6.522a3.261,3.261,0,0,0-3.261,3.261h0A3.261,3.261,0,0,0,3692.629,1505.388Z" fill="none" stroke="#90278e" stroke-linecap="round" stroke-linejoin="round" stroke-width="1.2"/>
    <circle id="Ellipse_1840" data-name="Ellipse 1840" cx="1.087" cy="1.087" r="1.087" transform="translate(3691.542 1501.04)" fill="none" stroke="#f6921e" stroke-linecap="round" stroke-linejoin="round" stroke-width="1.2"/>
    <path id="Path_3616" data-name="Path 3616" d="M3676.324,1489.084a2.174,2.174,0,0,0,0,4.347" fill="none" stroke="#f6921e" stroke-linecap="round" stroke-linejoin="round" stroke-width="1.2"/>
    <path id="Path_3617" data-name="Path 3617" d="M3693.716,1493.431v-3.26a1.087,1.087,0,0,0-1.087-1.087h-16.3" fill="none" stroke="#f6921e" stroke-linecap="round" stroke-linejoin="round" stroke-width="1.2"/>
  </g>
</svg>
