<svg xmlns="http://www.w3.org/2000/svg" width="12.549" height="18.322" viewBox="0 0 12.549 18.322">
  <g id="Group_269" data-name="Group 269" transform="translate(-9197.477 -376.271)">
    <g id="Group_268" data-name="Group 268">
      <path id="Path_1319" data-name="Path 1319" d="M9197.977,390.628a2.469,2.469,0,0,0,.773,1.733,8.085,8.085,0,0,0,10,0,2.466,2.466,0,0,0,.774-1.733" fill="none" stroke="#fff" stroke-linecap="round" stroke-linejoin="round" stroke-width="1"/>
      <path id="Path_1320" data-name="Path 1320" d="M9197.977,383.7a2.468,2.468,0,0,0,.773,1.732,8.085,8.085,0,0,0,10,0,2.465,2.465,0,0,0,.774-1.732" fill="none" stroke="#fff" stroke-linecap="round" stroke-linejoin="round" stroke-width="1"/>
      <ellipse id="Ellipse_720" data-name="Ellipse 720" cx="5.774" cy="3.464" rx="5.774" ry="3.464" transform="translate(9197.977 376.771)" fill="none" stroke="#fff" stroke-linecap="round" stroke-linejoin="round" stroke-width="1"/>
      <path id="Path_1321" data-name="Path 1321" d="M9197.977,387.164a2.468,2.468,0,0,0,.773,1.732,8.085,8.085,0,0,0,10,0,2.465,2.465,0,0,0,.774-1.732" fill="none" stroke="#fff" stroke-linecap="round" stroke-linejoin="round" stroke-width="1"/>
      <path id="Path_1322" data-name="Path 1322" d="M9209.525,380.235v10.393" fill="none" stroke="#fff" stroke-linecap="round" stroke-linejoin="round" stroke-width="1"/>
      <path id="Path_1323" data-name="Path 1323" d="M9197.977,380.235v10.393" fill="none" stroke="#fff" stroke-linecap="round" stroke-linejoin="round" stroke-width="1"/>
    </g>
  </g>
</svg>
