<svg xmlns="http://www.w3.org/2000/svg" width="25.698" height="26.796" viewBox="0 0 25.698 26.796">
  <g id="Group_706" data-name="Group 706" transform="translate(-3894.014 -1488.502)">
    <circle id="Ellipse_1962" data-name="Ellipse 1962" cx="4.857" cy="4.857" r="4.857" transform="translate(3906.865 1492.838)" fill="none" stroke="#90278e" stroke-linecap="round" stroke-linejoin="round" stroke-width="1.2"/>
    <path id="Path_3846" data-name="Path 3846" d="M3903.3,1496.564a4.853,4.853,0,0,1,2.828-4.408,3.966,3.966,0,1,0-2.812,4.717C3903.31,1496.77,3903.3,1496.668,3903.3,1496.564Z" fill="none" stroke="#f6921e" stroke-linecap="round" stroke-linejoin="round" stroke-width="1.2"/>
    <path id="Path_3847" data-name="Path 3847" d="M3894.661,1504.515s.322-3.969,3.761-5.548a3.682,3.682,0,0,0,4.377,1.356" fill="none" stroke="#f6921e" stroke-linecap="round" stroke-linejoin="round" stroke-width="1.2"/>
    <path id="Path_3848" data-name="Path 3848" d="M3906.174,1505.957a6.577,6.577,0,0,1,1.785-1.176c.284.081,2.839,3.69,7.3,0,.811.365,3.691,2.352,3.853,7.3-.933.041-11.235,0-11.235,0" fill="none" stroke="#90278e" stroke-linecap="round" stroke-linejoin="round" stroke-width="1.2"/>
    <path id="Path_3849" data-name="Path 3849" d="M3896.2,1507.8l4.477-4.538,4.357,4.3h-2.663s.424,5.688,3.51,7.14c-.545,0-6.111-1.452-7.2-6.958A18.669,18.669,0,0,1,3896.2,1507.8Z" fill="none" stroke="#f6921e" stroke-linecap="round" stroke-linejoin="round" stroke-width="1.2"/>
  </g>
</svg>
