<svg version="1.1" id="Layer_1" xmlns="http://www.w3.org/2000/svg" x="0" y="0" viewBox="0 0 1440 1512" style="enable-background:new 0 0 1440 1512" xml:space="preserve"><style>.st0{fill:#707070}</style><g id="Group_571" transform="translate(-3272.086 -1874.939)"><path class="st0" d="M3992.1 3350.9c-97.2 0-191.5-19-280.3-56.6-85.7-36.3-162.7-88.2-228.9-154.3-66.1-66.1-118-143.1-154.3-228.9-37.6-88.8-56.6-183.1-56.6-280.3s19-191.5 56.6-280.3c36.3-85.7 88.2-162.7 154.3-228.9 66.1-66.1 143.1-118 228.9-154.3 88.8-37.6 183.1-56.6 280.3-56.6s191.5 19 280.3 56.6c85.7 36.3 162.7 88.2 228.9 154.3 66.1 66.1 118 143.1 154.3 228.9 37.6 88.8 56.6 183.1 56.6 280.3s-19 191.5-56.6 280.3c-36.3 85.7-88.2 162.7-154.3 228.9-66.1 66.1-143.1 118-228.9 154.3-88.8 37.6-183.1 56.6-280.3 56.6zm0-1384.2c-366.3 0-664.2 298-664.2 664.2s298 664.2 664.2 664.2 664.2-298 664.2-664.2-297.9-664.2-664.2-664.2z" id="Ellipse_1660"/><path class="st0" d="M4533.7 2658.8c-15.4 0-27.9-12.5-27.9-27.9 0-283.3-230.5-513.8-513.8-513.8-283.3 0-513.8 230.5-513.8 513.8 0 15.4-12.5 27.9-27.9 27.9s-27.9-12.5-27.9-27.9c0-76.9 15.1-151.5 44.8-221.7 28.7-67.8 69.7-128.7 122-181 52.3-52.3 113.2-93.4 181-122 70.2-29.7 144.8-44.8 221.7-44.8 76.9 0 151.5 15.1 221.7 44.8 67.8 28.7 128.7 69.7 181 122 52.3 52.3 93.4 113.2 122 181 29.7 70.2 44.8 144.8 44.8 221.7.2 15.4-12.3 27.9-27.7 27.9z" id="Path_3102"/><g id="Group_570"><path class="st0" d="M3992.1 2688.9c-15.4 0-27.9-12.5-27.9-27.9v-300.9c0-15.4 12.5-27.9 27.9-27.9 15.4 0 27.9 12.5 27.9 27.9V2661c0 15.4-12.5 27.9-27.9 27.9z" id="Line_256"/><path class="st0" d="M3992.1 2869.5c-65.2 0-118.2-53-118.2-118.2s53-118.2 118.2-118.2c65.1 0 118.2 53 118.2 118.2s-53.1 118.2-118.2 118.2zm0-180.6c-34.4 0-62.4 28-62.4 62.4s28 62.4 62.4 62.4 62.4-28 62.4-62.4-28-62.4-62.4-62.4z" id="Ellipse_1661"/></g></g></svg>