<svg version="1.1" id="Layer_1" xmlns="http://www.w3.org/2000/svg" x="0" y="0" viewBox="0 0 177 176" style="enable-background:new 0 0 177 176" xml:space="preserve"><style>.st1{fill:none;stroke:#fff;stroke-width:1.3;stroke-linecap:round;stroke-linejoin:round;stroke-miterlimit:10}</style><circle cx="80.5" cy="99" r="18.45" style="fill:#92298d"/><path class="st1" d="M85.55 91.33c0 .93-.8 1.68-1.75 1.6-.84-.07-1.46-.83-1.46-1.68v-.48c0-.85.62-1.61 1.46-1.68.95-.08 1.75.66 1.75 1.6v.64zM84.79 94.41l-.54.64c-.16.19-.45.19-.61 0l-.54-.64a.79.79 0 0 0-.92-.23 4.404 4.404 0 0 0-2.63 3.6c-.02.24.16.45.4.45h7.97c.24 0 .42-.21.4-.45a4.418 4.418 0 0 0-2.63-3.6c-.3-.14-.67-.04-.9.23zM77.03 100.27v-.9c0-1-.81-1.8-1.8-1.8h0c-1 0-1.8.81-1.8 1.8v.9c0 .5-.4.9-.9.9h0c0 .75.61 1.35 1.35 1.35h2.7c.75 0 1.35-.61 1.35-1.35h0c-.5 0-.9-.4-.9-.9zM78.7 107.94h-6.96c-.29 0-.51-.28-.44-.56l.25-1c.3-1.2 1.38-2.05 2.62-2.05l1.04.45 1.04-.45c1.24 0 2.32.84 2.62 2.05l.25 1c.09.28-.13.56-.42.56z"/><g><path class="st1" d="M70.94 97.68c.52-1.77 2.14-5.52 6.89-7.03M74.25 89.46l4.25.57M77.93 94.27l.57-4.24"/></g><g><path class="st1" d="M90.06 100.63c-.48 1.79-2.02 5.56-6.74 7.19M86.93 108.92l-4.25-.47M83.14 104.2l-.46 4.25"/></g></svg>