<?xml version="1.0" encoding="utf-8"?>
<!-- Generator: Adobe Illustrator 26.0.1, SVG Export Plug-In . SVG Version: 6.00 Build 0)  -->
<svg version="1.1" id="Layer_1" xmlns="http://www.w3.org/2000/svg" xmlns:xlink="http://www.w3.org/1999/xlink" x="0px" y="0px"
	 viewBox="0 0 177 176" style="enable-background:new 0 0 177 176;" xml:space="preserve">
<style type="text/css">
	.st0{fill:#92298D;}
	.st1{fill:none;stroke:#FFFFFF;stroke-width:3;stroke-linecap:round;stroke-linejoin:round;stroke-miterlimit:10;}
</style>
<g>
	<circle class="st0" cx="88.5" cy="88" r="87"/>
	<path class="st1" d="M112.3,51.8c0,4.4-3.8,7.9-8.3,7.5c-4-0.3-6.9-3.9-6.9-7.9v-2.3c0-4,2.9-7.6,6.9-7.9c4.5-0.4,8.3,3.1,8.3,7.5
		C112.3,48.8,112.3,51.8,112.3,51.8z M108.7,66.4l-2.5,3c-0.8,0.9-2.1,0.9-2.9,0l-2.5-3c-1-1.3-2.8-1.7-4.3-1.1
		c-6.9,3-11.6,9.5-12.4,17c-0.1,1.1,0.8,2.1,1.9,2.1h37.6c1.1,0,2-1,1.9-2.1c-0.8-7.5-5.5-14-12.4-17
		C111.6,64.6,109.8,65.1,108.7,66.4z M72.1,94v-4.2c0-4.7-3.8-8.5-8.5-8.5l0,0c-4.7,0-8.5,3.8-8.5,8.5V94c0,2.4-1.9,4.2-4.2,4.2l0,0
		c0,3.5,2.9,6.4,6.4,6.4H70c3.5,0,6.4-2.9,6.4-6.4l0,0C74,98.2,72.1,96.3,72.1,94L72.1,94z M80,130.2H47.2c-1.4,0-2.4-1.3-2.1-2.6
		l1.2-4.7c1.4-5.7,6.5-9.7,12.4-9.7l4.9,2.1l4.9-2.1c5.8,0,10.9,4,12.4,9.7l1.2,4.7C82.4,128.8,81.4,130.2,80,130.2z"/>
	<g>
		<path class="st1" d="M43.9,81.3c2.5-8.3,10.1-26,32.5-33.1 M59,43l20,2.7 M76.4,65.7l2.7-20"/>
	</g>
	<g>
		<path class="st1" d="M132.7,96.3c-2.3,8.4-9.5,26.2-31.8,33.9 M118.8,134.8l-20-2.2 M100.9,112.5l-2.2,20"/>
	</g>
</g>
</svg>
