<svg xmlns="http://www.w3.org/2000/svg" width="31.342" height="41.867" viewBox="0 0 31.342 41.867">
  <g id="Group_68" data-name="Group 68" transform="translate(-193.608 -244.876)">
    <g id="Group_66" data-name="Group 66">
      <path id="Path_212" data-name="Path 212" d="M203.344,275.187a2.42,2.42,0,0,0,.758,1.7,7.921,7.921,0,0,0,9.8,0,2.415,2.415,0,0,0,.758-1.7" fill="none" stroke="#fff" stroke-linecap="round" stroke-linejoin="round" stroke-width="1.5"/>
      <path id="Path_213" data-name="Path 213" d="M203.344,268.4a2.416,2.416,0,0,0,.758,1.7,7.917,7.917,0,0,0,9.8,0,2.411,2.411,0,0,0,.758-1.7" fill="none" stroke="#fff" stroke-linecap="round" stroke-linejoin="round" stroke-width="1.5"/>
      <ellipse id="Ellipse_123" data-name="Ellipse 123" cx="5.656" cy="3.394" rx="5.656" ry="3.394" transform="translate(203.344 261.613)" fill="none" stroke="#fff" stroke-linecap="round" stroke-linejoin="round" stroke-width="1.5"/>
      <path id="Path_214" data-name="Path 214" d="M203.344,271.793a2.419,2.419,0,0,0,.758,1.7,7.917,7.917,0,0,0,9.8,0,2.415,2.415,0,0,0,.758-1.7" fill="none" stroke="#fff" stroke-linecap="round" stroke-linejoin="round" stroke-width="1.5"/>
      <path id="Path_215" data-name="Path 215" d="M214.656,265.006v10.181" fill="none" stroke="#fff" stroke-linecap="round" stroke-linejoin="round" stroke-width="1.5"/>
      <path id="Path_216" data-name="Path 216" d="M203.344,265.006v10.181" fill="none" stroke="#fff" stroke-linecap="round" stroke-linejoin="round" stroke-width="1.5"/>
    </g>
    <g id="Group_67" data-name="Group 67">
      <path id="Path_217" data-name="Path 217" d="M215.423,254.441H203.135l-3.511-8.777c1.755,0,3.511,0,5.266,1.755.786-1,1.756-1.755,4.389-1.793,2.633.038,3.527.578,4.388,1.793,1.756-1.755,3.511-1.755,5.267-1.755Z" fill="none" stroke="#fff" stroke-linecap="round" stroke-linejoin="round" stroke-width="1.5"/>
      <path id="Path_218" data-name="Path 218" d="M215.423,254.441H203.135c-3.511,3.511-8.777,9.676-8.777,15.8a14.943,14.943,0,1,0,29.842,0C224.2,264.117,218.934,257.952,215.423,254.441Z" fill="none" stroke="#fff" stroke-linecap="round" stroke-linejoin="round" stroke-width="1.5"/>
      <path id="Path_219" data-name="Path 219" d="M209.279,279.016" fill="none" stroke="#fff" stroke-linecap="round" stroke-linejoin="round" stroke-width="1.5"/>
      <path id="Path_220" data-name="Path 220" d="M209.279,259.707" fill="none" stroke="#fff" stroke-linecap="round" stroke-linejoin="round" stroke-width="1.5"/>
    </g>
  </g>
</svg>
