<svg xmlns="http://www.w3.org/2000/svg" width="21" height="24" viewBox="0 0 21 24">
  <g id="Group_585" data-name="Group 585" transform="translate(-3385.131 -340.311)">
    <g id="Group_584" data-name="Group 584">
      <path id="Path_3187" data-name="Path 3187" d="M3395.631,359.811h9a1,1,0,0,0,1-1V356.68a1.031,1.031,0,0,0-.787-.974c-2.307-.66-2.759-3.407-3.213-8.895-.247-2.99-2-6-6-6s-5.753,3.01-6,6c-.454,5.488-.906,8.235-3.213,8.895a1.031,1.031,0,0,0-.787.974v2.131a1,1,0,0,0,1,1Z" fill="none" stroke="#707070" stroke-linecap="round" stroke-linejoin="round" stroke-width="1"/>
      <path id="Path_3188" data-name="Path 3188" d="M3395.631,363.811h0a2,2,0,0,1-2-2v-2h4v2A2,2,0,0,1,3395.631,363.811Z" fill="none" stroke="#707070" stroke-linecap="round" stroke-linejoin="round" stroke-width="1"/>
    </g>
  </g>
</svg>
