<svg xmlns="http://www.w3.org/2000/svg" width="74.595" height="82.735" viewBox="0 0 74.595 82.735">
  <g id="Group_769" data-name="Group 769" transform="translate(-1915.716 -777.924)">
    <path id="Path_4011" data-name="Path 4011" d="M1965.859,838.6v17.551a3.52,3.52,0,0,1-3.51,3.51h-42.123a3.521,3.521,0,0,1-3.51-3.51V782.434a3.52,3.52,0,0,1,3.51-3.51h42.123a3.52,3.52,0,0,1,3.51,3.51" fill="none" stroke="#90278e" stroke-linecap="round" stroke-linejoin="round" stroke-width="2"/>
    <line id="Line_327" data-name="Line 327" x2="49.143" transform="translate(1916.716 849.128)" fill="none" stroke="#f6921e" stroke-linecap="round" stroke-linejoin="round" stroke-width="2"/>
    <path id="Path_4012" data-name="Path 4012" d="M1952.277,797.595a2.849,2.849,0,0,0-2.849,2.849v25.638h2.849v11.4l11.4-11.4h22.79a2.849,2.849,0,0,0,2.849-2.848v-22.79a2.849,2.849,0,0,0-2.849-2.849Z" fill="none" stroke="#f6921e" stroke-linecap="round" stroke-linejoin="round" stroke-width="2"/>
  </g>
</svg>
