<svg xmlns="http://www.w3.org/2000/svg" width="62.436" height="83.767" viewBox="0 0 62.436 83.767">
  <g id="point_hand" transform="translate(-1920.723 -1690.561)">
    <path id="Path_4048" data-name="Path 4048" d="M1960.829,1734.222v-17.776a7.131,7.131,0,0,0-7.11-7.11h-3.555v24.886" fill="none" stroke="#90278e" stroke-linecap="round" stroke-linejoin="round" stroke-width="2"/>
    <path id="Path_4049" data-name="Path 4049" d="M1971.494,1723.557a7.131,7.131,0,0,0-7.11-7.111h-3.555" fill="none" stroke="#90278e" stroke-linecap="round" stroke-linejoin="round" stroke-width="2"/>
    <path id="Path_4050" data-name="Path 4050" d="M1982.159,1741.332v-10.665a7.13,7.13,0,0,0-7.11-7.11h-3.555v10.665" fill="none" stroke="#90278e" stroke-linecap="round" stroke-linejoin="round" stroke-width="2"/>
    <path id="Path_4051" data-name="Path 4051" d="M1982.159,1741.332c0,14.22-7.11,17.775-7.11,32h-39.106v-3.555c0-14.221-14.22-21.331-14.22-28.441v-24.886a3.555,3.555,0,0,1,3.555-3.555h0a7.131,7.131,0,0,1,7.11,7.11v10.666a3.556,3.556,0,0,0,3.555,3.555h0a3.555,3.555,0,0,0,3.555-3.555v-33.774a5.333,5.333,0,0,1,10.666,0v12.443" fill="none" stroke="#90278e" stroke-linecap="round" stroke-linejoin="round" stroke-width="2"/>
  </g>
</svg>
