<svg xmlns="http://www.w3.org/2000/svg" width="19.46" height="19.46" viewBox="0 0 19.46 19.46">
  <g id="Group_789" data-name="Group 789" transform="translate(-1910.148 -2042.848)">
    <g id="Group_787" data-name="Group 787">
      <path id="Path_4045" data-name="Path 4045" d="M1910.748,2052.578a9.13,9.13,0,0,1,17.466-3.723" fill="none" stroke="#90278e" stroke-linecap="round" stroke-linejoin="round" stroke-width="1.2"/>
      <g id="Group_785" data-name="Group 785">
        <line id="Line_338" data-name="Line 338" y2="3.969" transform="translate(1928.214 2045.036)" fill="none" stroke="#90278e" stroke-linecap="round" stroke-linejoin="round" stroke-width="1.2"/>
        <line id="Line_339" data-name="Line 339" x2="3.969" transform="translate(1924.244 2049.006)" fill="none" stroke="#90278e" stroke-linecap="round" stroke-linejoin="round" stroke-width="1.2"/>
      </g>
      <g id="Group_786" data-name="Group 786">
        <path id="Path_4046" data-name="Path 4046" d="M1911.542,2056.3a9.13,9.13,0,0,0,17.466-3.724" fill="none" stroke="#90278e" stroke-linecap="round" stroke-linejoin="round" stroke-width="1.2"/>
        <line id="Line_340" data-name="Line 340" y1="3.969" transform="translate(1911.542 2056.151)" fill="none" stroke="#90278e" stroke-linecap="round" stroke-linejoin="round" stroke-width="1.2"/>
        <line id="Line_341" data-name="Line 341" x1="3.969" transform="translate(1911.542 2056.151)" fill="none" stroke="#90278e" stroke-linecap="round" stroke-linejoin="round" stroke-width="1.2"/>
      </g>
    </g>
    <g id="Group_788" data-name="Group 788">
      <path id="Path_4047" data-name="Path 4047" d="M1916.163,2050.313v3.705a.309.309,0,0,0,.309.309h4.94l1.852,1.235v-5.249a.309.309,0,0,0-.309-.308h-6.483A.309.309,0,0,0,1916.163,2050.313Z" fill="none" stroke="#f6921e" stroke-linecap="round" stroke-linejoin="round" stroke-width="1"/>
    </g>
  </g>
</svg>
