<svg xmlns="http://www.w3.org/2000/svg" width="20.396" height="20.396" viewBox="0 0 20.396 20.396">
  <g id="Group_151" data-name="Group 151" transform="translate(-900.408 -2164.378)">
    <circle id="Ellipse_369" data-name="Ellipse 369" cx="10.198" cy="10.198" r="10.198" transform="translate(900.408 2164.378)" fill="#92298d"/>
    <path id="Path_826" data-name="Path 826" d="M915.024,2174.556c0,.109-.071.163-.15.213l-1.372.875q-3.5,2.234-7.008,4.465c-.078.049-.161.157-.263.054s-.007-.186.044-.267q1.593-2.54,3.19-5.075a.434.434,0,0,0,0-.52q-1.6-2.529-3.184-5.064l-.039-.064a.139.139,0,0,1,.008-.184.141.141,0,0,1,.194-.009l.749.477,7.672,4.891C914.945,2174.4,915.022,2174.448,915.024,2174.556Z" fill="#fff"/>
  </g>
</svg>
