<svg xmlns="http://www.w3.org/2000/svg" width="19.039" height="14.593" viewBox="0 0 19.039 14.593">
  <g id="Group_208" data-name="Group 208" transform="translate(-8760.687 -312.908)">
    <g id="Group_206" data-name="Group 206">
      <line id="Line_111" data-name="Line 111" x2="2.326" y2="2.326" transform="translate(8776.692 313.615)" fill="none" stroke="#fff" stroke-linecap="round" stroke-linejoin="round" stroke-width="1"/>
      <line id="Line_112" data-name="Line 112" y1="2.326" x2="2.326" transform="translate(8776.692 315.941)" fill="none" stroke="#fff" stroke-linecap="round" stroke-linejoin="round" stroke-width="1"/>
    </g>
    <g id="Group_207" data-name="Group 207">
      <line id="Line_113" data-name="Line 113" x2="2.326" y2="2.326" transform="translate(8776.692 322.143)" fill="none" stroke="#fff" stroke-linecap="round" stroke-linejoin="round" stroke-width="1"/>
      <line id="Line_114" data-name="Line 114" y1="2.326" x2="2.326" transform="translate(8776.692 324.468)" fill="none" stroke="#fff" stroke-linecap="round" stroke-linejoin="round" stroke-width="1"/>
    </g>
    <path id="Path_1080" data-name="Path 1080" d="M8779.018,324.468h-3.366a3.1,3.1,0,0,1-2.193-.908l-6.711-6.711a3.1,3.1,0,0,0-2.193-.908h-3.367" fill="none" stroke="#fff" stroke-linecap="round" stroke-linejoin="round" stroke-width="1"/>
    <path id="Path_1081" data-name="Path 1081" d="M8761.187,324.468h3.365a3.1,3.1,0,0,0,2.194-.907l2.264-2.256" fill="none" stroke="#fff" stroke-linecap="round" stroke-linejoin="round" stroke-width="1"/>
    <path id="Path_1082" data-name="Path 1082" d="M8771.2,319.111l2.255-2.263a3.1,3.1,0,0,1,2.194-.907h3.364" fill="none" stroke="#fff" stroke-linecap="round" stroke-linejoin="round" stroke-width="1"/>
  </g>
</svg>
