<svg xmlns="http://www.w3.org/2000/svg" width="35.113" height="35.113" viewBox="0 0 35.113 35.113">
  <g id="Group_150" data-name="Group 150" transform="translate(-623.196 -1731.153)">
    <circle id="Ellipse_368" data-name="Ellipse 368" cx="17.056" cy="17.056" r="17.056" transform="translate(623.696 1731.653)" fill="none" stroke="#979797" stroke-miterlimit="10" stroke-width="1"/>
    <g id="Group_149" data-name="Group 149">
      <path id="Path_823" data-name="Path 823" d="M643.128,1741.132c0,2.108-1.063,4.618-2.375,4.618s-2.376-2.51-2.376-4.618,1.064-3.014,2.376-3.014S643.128,1739.025,643.128,1741.132Z" fill="#fff"/>
      <g id="Group_148" data-name="Group 148">
        <path id="Path_824" data-name="Path 824" d="M646.972,1748.889a3.208,3.208,0,0,1-3.066-1.523.6.6,0,1,0-.976.686,4.349,4.349,0,0,0,4.042,2.031c1.026,0,1.18,1.852,1.18,2.957v1.776a.292.292,0,0,1-.292.292H645.2a.292.292,0,0,1-.292-.292v-1.776a.6.6,0,1,0-1.193,0v1.776a.292.292,0,0,1-.292.292h-5.331a.291.291,0,0,1-.291-.292v-1.776a.6.6,0,1,0-1.194,0v1.776a.292.292,0,0,1-.292.292h-2.665a.291.291,0,0,1-.291-.292v-1.776c0-1.1.153-2.957,1.18-2.957a4.35,4.35,0,0,0,4.042-2.031.6.6,0,0,0-.488-.94.6.6,0,0,0-.489.254,3.207,3.207,0,0,1-3.065,1.523c-1.531,0-2.374,1.474-2.374,4.151v2.665a.6.6,0,0,0,.6.6h15.992a.6.6,0,0,0,.6-.6v-2.665C649.345,1750.363,648.5,1748.889,646.972,1748.889Z" fill="#213a72"/>
        <path id="Path_825" data-name="Path 825" d="M640.753,1746.529c1.829,0,3.262-2.269,3.262-5.166,0-3.632-2.282-4.024-3.262-4.024s-3.263.392-3.263,4.024C637.49,1744.26,638.923,1746.529,640.753,1746.529Zm0-8c.511,0,2.068,0,2.068,2.83,0,2.116-.967,3.972-2.068,3.972s-2.069-1.856-2.069-3.972C638.684,1738.533,640.241,1738.533,640.753,1738.533Z" fill="#213a72"/>
      </g>
    </g>
  </g>
</svg>
