<svg xmlns="http://www.w3.org/2000/svg" width="14.52" height="13.322" viewBox="0 0 14.52 13.322">
  <g id="Group_216" data-name="Group 216" transform="translate(-8755.536 -476.511)">
    <path id="Path_1087" data-name="Path 1087" d="M8755.911,479.28v8.981a1.2,1.2,0,0,0,1.2,1.2h11.375a1.2,1.2,0,0,0,1.2-1.2v-8.382a.6.6,0,0,0-.6-.6h-11.974" fill="none" stroke="#fff" stroke-linecap="round" stroke-linejoin="round" stroke-width="0.75"/>
    <line id="Line_121" data-name="Line 121" y1="2.395" transform="translate(8755.911 478.083)" fill="none" stroke="#fff" stroke-linecap="round" stroke-linejoin="round" stroke-width="0.75"/>
    <path id="Path_1088" data-name="Path 1088" d="M8766.089,485.866h3.592v-3.592h-3.592a1.8,1.8,0,0,0-1.8,1.8h0A1.8,1.8,0,0,0,8766.089,485.866Z" fill="none" stroke="#fff" stroke-linecap="round" stroke-linejoin="round" stroke-width="0.75"/>
    <circle id="Ellipse_595" data-name="Ellipse 595" cx="0.599" cy="0.599" r="0.599" transform="translate(8765.49 483.471)" fill="none" stroke="#fff" stroke-linecap="round" stroke-linejoin="round" stroke-width="0.75"/>
    <path id="Path_1089" data-name="Path 1089" d="M8757.109,476.886a1.2,1.2,0,1,0,0,2.394" fill="none" stroke="#fff" stroke-linecap="round" stroke-linejoin="round" stroke-width="0.75"/>
    <path id="Path_1090" data-name="Path 1090" d="M8766.688,479.28v-1.8a.6.6,0,0,0-.6-.6h-8.979" fill="none" stroke="#fff" stroke-linecap="round" stroke-linejoin="round" stroke-width="0.75"/>
  </g>
</svg>
