<svg xmlns="http://www.w3.org/2000/svg" width="14.133" height="16.104" viewBox="0 0 14.133 16.104">
  <g id="Group_139" data-name="Group 139" transform="translate(-2950.411 -998.839)">
    <path id="Path_815" data-name="Path 815" d="M2957.478,1011.816h5.91a.657.657,0,0,0,.656-.657v-1.4a.677.677,0,0,0-.516-.639c-1.516-.434-1.812-2.238-2.11-5.842-.163-1.963-1.314-3.94-3.94-3.94s-3.778,1.977-3.94,3.94c-.3,3.6-.595,5.408-2.11,5.842a.677.677,0,0,0-.517.639v1.4a.657.657,0,0,0,.657.657Z" fill="none" stroke="#fff" stroke-linecap="round" stroke-linejoin="round" stroke-width="1"/>
    <path id="Path_816" data-name="Path 816" d="M2957.478,1014.443h0a1.314,1.314,0,0,1-1.314-1.314v-1.313h2.627v1.313A1.313,1.313,0,0,1,2957.478,1014.443Z" fill="none" stroke="#fff" stroke-linecap="round" stroke-linejoin="round" stroke-width="1"/>
  </g>
</svg>
