<svg width="49" height="56" viewBox="0 0 49 56" fill="none" xmlns="http://www.w3.org/2000/svg">
<g clip-path="url(#clip0_2_72)">
<path d="M17.28 20.75C21.991 20.75 25.81 19.1114 25.81 17.09C25.81 15.0686 21.991 13.43 17.28 13.43C12.569 13.43 8.75 15.0686 8.75 17.09C8.75 19.1114 12.569 20.75 17.28 20.75Z" stroke="white" stroke-width="2.5" stroke-linecap="round" stroke-linejoin="round"/>
<path d="M25.81 17.09V23.18C25.81 25.2 21.99 26.84 17.28 26.84C12.57 26.84 8.75 25.2 8.75 23.18V17.09" stroke="white" stroke-width="2.5" stroke-linecap="round" stroke-linejoin="round"/>
<path d="M25.81 26.69V23.18" stroke="white" stroke-width="2.5" stroke-linecap="round" stroke-linejoin="round"/>
<path d="M36.77 11V17.09C36.77 18.93 33.59 20.45 29.46 20.71" stroke="white" stroke-width="2.5" stroke-linecap="round" stroke-linejoin="round"/>
<path d="M28.25 8.57C32.961 8.57 36.78 6.93136 36.78 4.91C36.78 2.88864 32.961 1.25 28.25 1.25C23.539 1.25 19.72 2.88864 19.72 4.91C19.72 6.93136 23.539 8.57 28.25 8.57Z" stroke="white" stroke-width="2.5" stroke-linecap="round" stroke-linejoin="round"/>
<path d="M19.72 9.78V4.91" stroke="white" stroke-width="2.5" stroke-linecap="round" stroke-linejoin="round"/>
<path d="M36.77 4.91V11C36.77 12.91 33.36 14.48 29 14.64" stroke="white" stroke-width="2.5" stroke-linecap="round" stroke-linejoin="round"/>
<path d="M36.77 21.35V17.09" stroke="white" stroke-width="2.5" stroke-linecap="round" stroke-linejoin="round"/>
<path d="M1.51 41.61C5.25 48.97 12.9 54.02 21.72 54.02C30.54 54.02 37.86 49.16 41.68 42.04L47.55 44.81L44.07 20.99L23.46 33.43L29.75 36.4C26.86 40.25 22.27 42.76 17.08 42.76C8.34 42.76 1.25 35.67 1.25 26.93C1.25 23.99 2.05 21.23 3.45 18.87" stroke="white" stroke-width="2.5" stroke-linecap="round" stroke-linejoin="round"/>
<path d="M8.75 23.18V29.27C8.75 31.29 12.57 32.93 17.28 32.93C17.98 32.93 18.65 32.89 19.3 32.83" stroke="white" stroke-width="2.5" stroke-linecap="round" stroke-linejoin="round"/>
</g>
<defs>
<clipPath id="clip0_2_72">
<rect width="48.8" height="55.27" fill="white"/>
</clipPath>
</defs>
</svg>
