<svg width="506" height="72" viewBox="0 0 506 72" fill="none" xmlns="http://www.w3.org/2000/svg">
<line y1="27.5" x2="506" y2="27.5" stroke="#262424" stroke-opacity="0.29"/>
<g filter="url(#filter0_d_89_17)">
<path d="M245.83 54.54C260.051 54.54 271.58 43.0113 271.58 28.79C271.58 14.5687 260.051 3.03999 245.83 3.03999C231.609 3.03999 220.08 14.5687 220.08 28.79C220.08 43.0113 231.609 54.54 245.83 54.54Z" fill="url(#paint0_linear_89_17)"/>
<path d="M245.83 54.54C260.051 54.54 271.58 43.0113 271.58 28.79C271.58 14.5687 260.051 3.03999 245.83 3.03999C231.609 3.03999 220.08 14.5687 220.08 28.79C220.08 43.0113 231.609 54.54 245.83 54.54Z" fill="#912C8C"/>
</g>
<g filter="url(#filter1_d_89_17)">
<path d="M246.04 52.27C259.008 52.27 269.52 41.7576 269.52 28.79C269.52 15.8224 259.008 5.31 246.04 5.31C233.072 5.31 222.56 15.8224 222.56 28.79C222.56 41.7576 233.072 52.27 246.04 52.27Z" fill="url(#paint1_linear_89_17)"/>
<path d="M246.04 52.27C259.008 52.27 269.52 41.7576 269.52 28.79C269.52 15.8224 259.008 5.31 246.04 5.31C233.072 5.31 222.56 15.8224 222.56 28.79C222.56 41.7576 233.072 52.27 246.04 52.27Z" fill="white"/>
</g>
<path d="M236.99 26.14L246.04 17.09" stroke="#F59222" stroke-width="3" stroke-linecap="round" stroke-linejoin="round"/>
<path d="M255.09 26.14L246.04 17.09" stroke="#F59222" stroke-width="3" stroke-linecap="round" stroke-linejoin="round"/>
<path d="M246.04 40.48V17.09" stroke="#F59222" stroke-width="3" stroke-linecap="round" stroke-linejoin="round"/>
<defs>
<filter id="filter0_d_89_17" x="217.08" y="0.0399933" width="71.5" height="71.5" filterUnits="userSpaceOnUse" color-interpolation-filters="sRGB">
<feFlood flood-opacity="0" result="BackgroundImageFix"/>
<feColorMatrix in="SourceAlpha" type="matrix" values="0 0 0 0 0 0 0 0 0 0 0 0 0 0 0 0 0 0 127 0" result="hardAlpha"/>
<feOffset dx="7" dy="7"/>
<feGaussianBlur stdDeviation="5"/>
<feColorMatrix type="matrix" values="0 0 0 0 0.733333 0 0 0 0 0.705882 0 0 0 0 0.705882 0 0 0 0.75 0"/>
<feBlend mode="normal" in2="BackgroundImageFix" result="effect1_dropShadow_89_17"/>
<feBlend mode="normal" in="SourceGraphic" in2="effect1_dropShadow_89_17" result="shape"/>
</filter>
<filter id="filter1_d_89_17" x="219.56" y="2.31" width="66.96" height="66.96" filterUnits="userSpaceOnUse" color-interpolation-filters="sRGB">
<feFlood flood-opacity="0" result="BackgroundImageFix"/>
<feColorMatrix in="SourceAlpha" type="matrix" values="0 0 0 0 0 0 0 0 0 0 0 0 0 0 0 0 0 0 127 0" result="hardAlpha"/>
<feOffset dx="7" dy="7"/>
<feGaussianBlur stdDeviation="5"/>
<feColorMatrix type="matrix" values="0 0 0 0 0.733333 0 0 0 0 0.705882 0 0 0 0 0.705882 0 0 0 0.75 0"/>
<feBlend mode="normal" in2="BackgroundImageFix" result="effect1_dropShadow_89_17"/>
<feBlend mode="normal" in="SourceGraphic" in2="effect1_dropShadow_89_17" result="shape"/>
</filter>
<linearGradient id="paint0_linear_89_17" x1="271.58" y1="28.79" x2="220.09" y2="28.79" gradientUnits="userSpaceOnUse">
<stop stop-color="#DCDCDC"/>
<stop offset="1" stop-color="#969696"/>
</linearGradient>
<linearGradient id="paint1_linear_89_17" x1="269.52" y1="28.79" x2="222.57" y2="28.79" gradientUnits="userSpaceOnUse">
<stop stop-color="#DCDCDC"/>
<stop offset="1" stop-color="#969696"/>
</linearGradient>
</defs>
</svg>
