<svg width="54" height="54" viewBox="0 0 54 54" fill="none" xmlns="http://www.w3.org/2000/svg">
<g clip-path="url(#clip0_2_85)">
<path d="M41.46 11H47.55V4.91" stroke="white" stroke-width="2.5" stroke-linecap="round" stroke-linejoin="round"/>
<path d="M13.43 19.53V25.62C13.43 27.46 16.61 28.98 20.74 29.24" stroke="white" stroke-width="2.5" stroke-linecap="round" stroke-linejoin="round"/>
<path d="M21.96 17.1C26.671 17.1 30.49 15.4614 30.49 13.44C30.49 11.4186 26.671 9.78 21.96 9.78C17.249 9.78 13.43 11.4186 13.43 13.44C13.43 15.4614 17.249 17.1 21.96 17.1Z" stroke="white" stroke-width="2.5" stroke-linecap="round" stroke-linejoin="round"/>
<path d="M30.49 18.31V13.44" stroke="white" stroke-width="2.5" stroke-linecap="round" stroke-linejoin="round"/>
<path d="M13.43 13.44V19.53C13.43 21.44 16.84 23.01 21.2 23.17" stroke="white" stroke-width="2.5" stroke-linecap="round" stroke-linejoin="round"/>
<path d="M3.55003 37.23C2.05003 33.93 1.26003 30.38 1.25003 26.83C1.24003 20.27 3.80003 13.7 8.82003 8.67999C13.77 3.74999 20.3 1.31999 26.84 1.24999C33.99 1.17999 39.22 3.35999 43.9 7.33999C44.73 8.03999 47.56 11 47.56 11" stroke="white" stroke-width="2.5" stroke-linecap="round" stroke-linejoin="round"/>
<path d="M50.12 16.44C51.62 19.74 52.41 23.29 52.42 26.84C52.43 33.4 49.87 39.97 44.85 44.99C39.91 49.93 33.38 52.36 26.84 52.43C19.69 52.5 14.46 50.32 9.77999 46.34C8.94999 45.64 6.12 42.68 6.12 42.68" stroke="white" stroke-width="2.5" stroke-linecap="round" stroke-linejoin="round"/>
<path d="M12.22 42.68H6.12V48.77" stroke="white" stroke-width="2.5" stroke-linecap="round" stroke-linejoin="round"/>
<path d="M32.93 29.28C37.641 29.28 41.46 27.6414 41.46 25.62C41.46 23.5986 37.641 21.96 32.93 21.96C28.219 21.96 24.4 23.5986 24.4 25.62C24.4 27.6414 28.219 29.28 32.93 29.28Z" stroke="white" stroke-width="2.5" stroke-linecap="round" stroke-linejoin="round"/>
<path d="M24.4 25.62V31.71C24.4 33.73 28.22 35.37 32.93 35.37C37.64 35.37 41.46 33.73 41.46 31.71V25.62" stroke="white" stroke-width="2.5" stroke-linecap="round" stroke-linejoin="round"/>
<path d="M41.46 31.71V37.8C41.46 39.82 37.64 41.46 32.93 41.46C28.22 41.46 24.4 39.82 24.4 37.8V31.71" stroke="white" stroke-width="2.5" stroke-linecap="round" stroke-linejoin="round"/>
<path d="M20.75 35.33C16.62 35.08 13.44 33.55 13.44 31.71V25.62" stroke="white" stroke-width="2.5" stroke-linecap="round" stroke-linejoin="round"/>
</g>
<defs>
<clipPath id="clip0_2_85">
<rect width="53.67" height="53.67" fill="white"/>
</clipPath>
</defs>
</svg>
