<svg width="57" height="49" viewBox="0 0 57 49" fill="none" xmlns="http://www.w3.org/2000/svg">
<g clip-path="url(#clip0_2_62)">
<path d="M35.37 28.05H46.9C46.9 29.41 48.28 30.51 49.99 30.51V40.21C48.28 40.21 46.9 41.31 46.9 42.67H35.37" stroke="white" stroke-width="2.5" stroke-linecap="round" stroke-linejoin="round"/>
<path d="M42.68 35.37H40.24" stroke="white" stroke-width="2.5" stroke-linecap="round" stroke-linejoin="round"/>
<path d="M6.12 23.18H1.25V47.55H54.86V23.18H28.05" stroke="white" stroke-width="2.5" stroke-linecap="round" stroke-linejoin="round"/>
<path d="M9.22001 28.05C9.22001 29.41 7.84 30.51 6.13 30.51V40.21C7.84 40.21 9.22001 41.31 9.22001 42.67H20.75" stroke="white" stroke-width="2.5" stroke-linecap="round" stroke-linejoin="round"/>
<path d="M14.65 35.37H17.09" stroke="white" stroke-width="2.5" stroke-linecap="round" stroke-linejoin="round"/>
<path d="M28.05 42.68C30.9329 42.68 33.27 39.4072 33.27 35.37C33.27 31.3328 30.9329 28.06 28.05 28.06C25.1671 28.06 22.83 31.3328 22.83 35.37C22.83 39.4072 25.1671 42.68 28.05 42.68Z" stroke="white" stroke-width="2.5" stroke-linecap="round" stroke-linejoin="round"/>
<path d="M35.99 3.38C29.85 0.73 23.17 8.22 23.18 15.87V17.09H28.05L17.08 30.49L6.10999 17.09H10.98V15.87C10.98 7.35 17.24 1.26 26.82 1.25C36.4 1.25 43.87 7.35 43.88 15.87" stroke="white" stroke-width="2.5" stroke-linecap="round" stroke-linejoin="round"/>
</g>
<defs>
<clipPath id="clip0_2_62">
<rect width="56.11" height="48.8" fill="white"/>
</clipPath>
</defs>
</svg>
