<svg width="42" height="42" viewBox="0 0 42 42" fill="none" xmlns="http://www.w3.org/2000/svg">
<g clip-path="url(#clip0_2_121)">
<path d="M40.84 0H24.98C24.3835 0 23.9 0.483532 23.9 1.08V20.92C23.9 21.5165 24.3835 22 24.98 22H40.84C41.4365 22 41.92 21.5165 41.92 20.92V1.08C41.92 0.483532 41.4365 0 40.84 0Z" fill="#AAA6A6"/>
<path d="M16.94 19.65H1.08C0.483532 19.65 0 20.1336 0 20.73V40.72C0 41.3165 0.483532 41.8 1.08 41.8H16.94C17.5365 41.8 18.02 41.3165 18.02 40.72V20.73C18.02 20.1336 17.5365 19.65 16.94 19.65Z" fill="#AAA6A6"/>
<path d="M16.94 0H1.08C0.483532 0 0 0.483532 0 1.08V13.63C0 14.2265 0.483532 14.71 1.08 14.71H16.94C17.5365 14.71 18.02 14.2265 18.02 13.63V1.08C18.02 0.483532 17.5365 0 16.94 0Z" fill="#AAA6A6"/>
<path d="M40.84 27.09H24.98C24.3835 27.09 23.9 27.5736 23.9 28.17V40.72C23.9 41.3165 24.3835 41.8 24.98 41.8H40.84C41.4365 41.8 41.92 41.3165 41.92 40.72V28.17C41.92 27.5736 41.4365 27.09 40.84 27.09Z" fill="#AAA6A6"/>
</g>
<defs>
<clipPath id="clip0_2_121">
<rect width="41.92" height="41.8" fill="white"/>
</clipPath>
</defs>
</svg>
