<svg width="76" height="70" viewBox="0 0 76 70" fill="none" xmlns="http://www.w3.org/2000/svg">
<g clip-path="url(#clip0_2_40)">
<path d="M18.68 42.71C17.34 42.88 15.91 42.97 14.43 42.97C7.01 42.97 1 40.72 1 37.93" stroke="#902A8B" stroke-width="2" stroke-linecap="round" stroke-linejoin="round"/>
<path d="M33.1 27.83C33.58 27.85 34.07 27.86 34.57 27.86C41.99 27.86 48 25.61 48 22.82" stroke="#902A8B" stroke-width="2" stroke-linecap="round" stroke-linejoin="round"/>
<path d="M10.54 51.14C5.02 50.52 1 48.59 1 46.32V29.53" stroke="#902A8B" stroke-width="2" stroke-linecap="round" stroke-linejoin="round"/>
<path d="M34.57 11.08C41.9872 11.08 48 8.82351 48 6.04C48 3.25648 41.9872 1 34.57 1C27.1528 1 21.14 3.25648 21.14 6.04C21.14 8.82351 27.1528 11.08 34.57 11.08Z" stroke="#902A8B" stroke-width="2" stroke-linecap="round" stroke-linejoin="round"/>
<path d="M48 14.43C48 17.21 41.99 19.47 34.57 19.47C27.15 19.47 21.14 17.22 21.14 14.43" stroke="#902A8B" stroke-width="2" stroke-linecap="round" stroke-linejoin="round"/>
<path d="M14.43 34.58C21.8472 34.58 27.86 32.3235 27.86 29.54C27.86 26.7565 21.8472 24.5 14.43 24.5C7.01282 24.5 1 26.7565 1 29.54C1 32.3235 7.01282 34.58 14.43 34.58Z" stroke="#902A8B" stroke-width="2" stroke-linecap="round" stroke-linejoin="round"/>
<path d="M21.14 6.04V19.74" stroke="#902A8B" stroke-width="2" stroke-linecap="round" stroke-linejoin="round"/>
<path d="M27.86 29.54V37.4" stroke="#902A8B" stroke-width="2" stroke-linecap="round" stroke-linejoin="round"/>
<path d="M48 30.48V22.82V6.04" stroke="#902A8B" stroke-width="2" stroke-linecap="round" stroke-linejoin="round"/>
<path d="M16.11 49.68V60.8L34.57 68.14V56.95L16.11 49.68Z" stroke="#902A8B" stroke-width="2" stroke-linecap="round" stroke-linejoin="round"/>
<path d="M49.68 61.85L34.57 68.14" stroke="#902A8B" stroke-width="2" stroke-linecap="round" stroke-linejoin="round"/>
<path d="M62.02 45.48L74.86 40.13V51.36L63.11 56.25" stroke="#902A8B" stroke-width="2" stroke-linecap="round" stroke-linejoin="round"/>
<path d="M34.57 56.92L48.39 51.16" stroke="#902A8B" stroke-width="2" stroke-linecap="round" stroke-linejoin="round"/>
<path d="M43.48 38.27L56.33 32.93L74.86 40.13" stroke="#902A8B" stroke-width="2" stroke-linecap="round" stroke-linejoin="round"/>
<path d="M16.11 49.68L30.04 43.87" stroke="#902A8B" stroke-width="2" stroke-linecap="round" stroke-linejoin="round"/>
<path d="M41.75 37.6L63.11 45.9V57.51L49.68 63.53V51.67L28.32 43.19L41.75 37.6Z" stroke="#902A8B" stroke-width="2" stroke-linecap="round" stroke-linejoin="round"/>
</g>
<defs>
<clipPath id="clip0_2_40">
<rect width="75.86" height="69.14" fill="white"/>
</clipPath>
</defs>
</svg>
