<svg width="506" height="82" viewBox="0 0 506 82" fill="none" xmlns="http://www.w3.org/2000/svg">
<line y1="32.5" x2="506" y2="32.5" stroke="#262424" stroke-opacity="0.29"/>
<g filter="url(#filter0_d_102_2)">
<path d="M245.83 59.54C260.051 59.54 271.58 48.0113 271.58 33.79C271.58 19.5687 260.051 8.04 245.83 8.04C231.609 8.04 220.08 19.5687 220.08 33.79C220.08 48.0113 231.609 59.54 245.83 59.54Z" fill="url(#paint0_linear_102_2)"/>
<path d="M245.83 59.54C260.051 59.54 271.58 48.0113 271.58 33.79C271.58 19.5687 260.051 8.04 245.83 8.04C231.609 8.04 220.08 19.5687 220.08 33.79C220.08 48.0113 231.609 59.54 245.83 59.54Z" fill="#912C8C"/>
</g>
<g filter="url(#filter1_d_102_2)">
<path d="M246.04 57.27C259.008 57.27 269.52 46.7576 269.52 33.79C269.52 20.8224 259.008 10.31 246.04 10.31C233.072 10.31 222.56 20.8224 222.56 33.79C222.56 46.7576 233.072 57.27 246.04 57.27Z" fill="url(#paint1_linear_102_2)"/>
<path d="M246.04 57.27C259.008 57.27 269.52 46.7576 269.52 33.79C269.52 20.8224 259.008 10.31 246.04 10.31C233.072 10.31 222.56 20.8224 222.56 33.79C222.56 46.7576 233.072 57.27 246.04 57.27Z" fill="white"/>
</g>
<path d="M236.99 31.14L246.04 22.09" stroke="#F59222" stroke-width="3" stroke-linecap="round" stroke-linejoin="round"/>
<path d="M255.09 31.14L246.04 22.09" stroke="#F59222" stroke-width="3" stroke-linecap="round" stroke-linejoin="round"/>
<path d="M246.04 45.48V22.09" stroke="#F59222" stroke-width="3" stroke-linecap="round" stroke-linejoin="round"/>
<defs>
<filter id="filter0_d_102_2" x="217.08" y="5.04" width="71.5" height="71.5" filterUnits="userSpaceOnUse" color-interpolation-filters="sRGB">
<feFlood flood-opacity="0" result="BackgroundImageFix"/>
<feColorMatrix in="SourceAlpha" type="matrix" values="0 0 0 0 0 0 0 0 0 0 0 0 0 0 0 0 0 0 127 0" result="hardAlpha"/>
<feOffset dx="7" dy="7"/>
<feGaussianBlur stdDeviation="5"/>
<feColorMatrix type="matrix" values="0 0 0 0 0.733333 0 0 0 0 0.705882 0 0 0 0 0.705882 0 0 0 0.75 0"/>
<feBlend mode="normal" in2="BackgroundImageFix" result="effect1_dropShadow_102_2"/>
<feBlend mode="normal" in="SourceGraphic" in2="effect1_dropShadow_102_2" result="shape"/>
</filter>
<filter id="filter1_d_102_2" x="219.56" y="7.31" width="66.96" height="66.96" filterUnits="userSpaceOnUse" color-interpolation-filters="sRGB">
<feFlood flood-opacity="0" result="BackgroundImageFix"/>
<feColorMatrix in="SourceAlpha" type="matrix" values="0 0 0 0 0 0 0 0 0 0 0 0 0 0 0 0 0 0 127 0" result="hardAlpha"/>
<feOffset dx="7" dy="7"/>
<feGaussianBlur stdDeviation="5"/>
<feColorMatrix type="matrix" values="0 0 0 0 0.733333 0 0 0 0 0.705882 0 0 0 0 0.705882 0 0 0 0.75 0"/>
<feBlend mode="normal" in2="BackgroundImageFix" result="effect1_dropShadow_102_2"/>
<feBlend mode="normal" in="SourceGraphic" in2="effect1_dropShadow_102_2" result="shape"/>
</filter>
<linearGradient id="paint0_linear_102_2" x1="271.58" y1="33.79" x2="220.09" y2="33.79" gradientUnits="userSpaceOnUse">
<stop stop-color="#DCDCDC"/>
<stop offset="1" stop-color="#969696"/>
</linearGradient>
<linearGradient id="paint1_linear_102_2" x1="269.52" y1="33.79" x2="222.57" y2="33.79" gradientUnits="userSpaceOnUse">
<stop stop-color="#DCDCDC"/>
<stop offset="1" stop-color="#969696"/>
</linearGradient>
</defs>
</svg>
