<svg width="42" height="44" viewBox="0 0 42 44" fill="none" xmlns="http://www.w3.org/2000/svg">
<path d="M40.8296 27.395L37.6363 24.6655C37.7877 23.7378 37.8658 22.7905 37.8658 21.8481C37.8658 20.9058 37.7877 19.9536 37.6363 19.0308L40.8296 16.3013C41.0709 16.0948 41.2435 15.8197 41.3246 15.5127C41.4058 15.2057 41.3915 14.8812 41.2837 14.5825L41.2398 14.4556C40.361 11.998 39.0441 9.72 37.3531 7.73193L37.2652 7.62939C37.0598 7.38795 36.7862 7.21439 36.4802 7.13158C36.1743 7.04877 35.8504 7.06061 35.5513 7.16553L31.5865 8.57666C30.1216 7.37549 28.4908 6.42822 26.7232 5.76904L25.9566 1.62354C25.8988 1.31124 25.7473 1.02394 25.5223 0.799794C25.2972 0.57565 25.0093 0.425277 24.6968 0.368652L24.565 0.344238C22.0259 -0.114746 19.3502 -0.114746 16.8111 0.344238L16.6793 0.368652C16.3667 0.425277 16.0788 0.57565 15.8538 0.799794C15.6288 1.02394 15.4773 1.31124 15.4195 1.62354L14.648 5.78857C12.8972 6.45301 11.2661 7.39798 9.8189 8.58642L5.82476 7.16553C5.52577 7.05978 5.20167 7.04751 4.89554 7.13037C4.58941 7.21323 4.31574 7.38728 4.11089 7.62939L4.023 7.73193C2.33498 9.72212 1.01847 11.9995 0.136285 14.4556L0.0923393 14.5825C-0.127387 15.1929 0.0532769 15.8765 0.546441 16.3013L3.77886 19.0601C3.6275 19.978 3.55425 20.9155 3.55425 21.8433C3.55425 22.7808 3.6275 23.7183 3.77886 24.6265L0.556206 27.3853C0.314974 27.5918 0.142322 27.8668 0.0612063 28.1738C-0.0199093 28.4809 -0.00564434 28.8053 0.102105 29.104L0.14605 29.231C1.02984 31.687 2.33355 33.9575 4.03277 35.9546L4.12066 36.0571C4.326 36.2986 4.59968 36.4721 4.90563 36.5549C5.21158 36.6377 5.53544 36.6259 5.83453 36.521L9.82867 35.1001C11.2837 36.2964 12.9048 37.2436 14.6578 37.8979L15.4293 42.063C15.4871 42.3753 15.6386 42.6626 15.8636 42.8867C16.0886 43.1109 16.3765 43.2612 16.689 43.3179L16.8209 43.3423C19.3849 43.8037 22.0107 43.8037 24.5748 43.3423L24.7066 43.3179C25.0191 43.2612 25.307 43.1109 25.532 42.8867C25.757 42.6626 25.9085 42.3753 25.9664 42.063L26.733 37.9175C28.5005 37.2534 30.1314 36.311 31.5962 35.1099L35.5611 36.521C35.8601 36.6267 36.1842 36.639 36.4903 36.5562C36.7964 36.4733 37.0701 36.2992 37.275 36.0571L37.3628 35.9546C39.0621 33.9478 40.3658 31.687 41.2496 29.231L41.2935 29.104C41.5035 28.4985 41.3228 27.8198 40.8296 27.395ZM20.6978 29.9438C15.9566 29.9438 12.1138 26.1011 12.1138 21.3599C12.1138 16.6187 15.9566 12.7759 20.6978 12.7759C25.439 12.7759 29.2818 16.6187 29.2818 21.3599C29.2818 26.1011 25.439 29.9438 20.6978 29.9438Z" fill="#AAA6A6"/>
</svg>
