<svg width="64" height="75" viewBox="0 0 64 75" fill="none" xmlns="http://www.w3.org/2000/svg">
<g clip-path="url(#clip0_2_7)">
<path d="M29.71 74.92V58.5C29.62 58.5 29.54 58.48 29.46 58.48C25.83 58.11 22.56 56.35 20.15 53.63C17.49 50.63 15.79 46.97 15.81 42.9C15.81 41.18 15.9 39.47 15.9 37.75V26.28H29.55V10.54H14.41C12.13 1.49 2.01 0.17 0 0" fill="#912C8C"/>
<path d="M0 0V38C0 38.42 0.01 38.84 0.02 39.26C0.06 41.01 -0.04 42.77 0.02 44.52C0.11 46.82 0.47 49.11 1.09 51.32C2.19 55.27 4.16 58.9 6.63 62.16C8.73 64.94 11.28 67.38 14.16 69.35C16.48 70.94 19.02 72.21 21.67 73.16C23.54 73.83 25.47 74.34 27.43 74.66" fill="#912C8C"/>
<path d="M63.81 74.92V48.35C63.81 47.68 63.81 47.02 63.83 46.36V40.58C63.74 39.07 63.6 37.56 63.36 36.07C63.35 36 63.34 35.94 63.33 35.87C63.05 34.28 62.63 32.79 62.05 31.27C61.58 30.06 61.04 28.88 60.43 27.74C59.73 26.43 58.93 25.17 58.05 23.98C57.06 22.64 55.96 21.38 54.77 20.22C53.44 18.92 51.99 17.75 50.44 16.71C48.7 15.53 46.85 14.53 44.92 13.68C42.71 12.71 40.41 11.96 38.07 11.38C36.7 11.04 35.31 10.77 33.91 10.55V26.26C41.8 27.54 47.85 34.33 47.85 42.59C47.85 45.59 46.99 48.36 45.6 50.79C45.55 50.87 45.52 50.95 45.47 51.03C45.02 51.78 44.52 52.48 43.91 53.2C41.41 56.18 37.92 57.84 33.9 58.49V74.91" fill="#AAA6A6"/>
<path d="M33.92 74.92C34.56 74.85 45.83 73.63 50.75 67.83C51.67 68.77 54.28 74.33 63.81 74.93" fill="#AAA6A6"/>
</g>
<defs>
<clipPath id="clip0_2_7">
<rect width="63.83" height="74.92" fill="white"/>
</clipPath>
</defs>
</svg>
