<svg width="45" height="45" viewBox="0 0 45 45" fill="none" xmlns="http://www.w3.org/2000/svg">
<g clip-path="url(#clip0_7_2090)">
<path d="M37.19 3.01998L29.86 10.35C29.15 11.06 28.78 12 28.8 12.95C28.79 13.9 29.15 14.83 29.86 15.55C31.29 16.98 33.62 16.98 35.05 15.55L42.38 8.21998C44.35 12.29 43.63 17.36 40.24 20.74C35.94 25.04 28.96 25.04 24.67 20.74C20.38 16.44 20.37 9.45998 24.67 5.16998C28.06 1.77998 33.12 1.04998 37.19 3.01998Z" stroke="#90278E" stroke-width="2" stroke-linecap="round" stroke-linejoin="round"/>
<path d="M25.14 22.03L39.67 36.75C41.28 38.36 41.28 40.99 39.67 42.6C38.1 44.21 35.51 44.21 33.91 42.6L19.38 27.88" stroke="#F6921E" stroke-width="2" stroke-linecap="round" stroke-linejoin="round"/>
<path d="M19.3799 22.03L11.1499 13.8" stroke="#90278E" stroke-width="2" stroke-linecap="round" stroke-linejoin="round"/>
<path d="M3.79995 3.84998L1.19995 6.43998L4.81995 12.66L9.80995 15.05L12.4 12.46L10.01 7.46998L3.79995 3.84998Z" stroke="#90278E" stroke-width="2" stroke-linecap="round" stroke-linejoin="round"/>
<path d="M28.14 23.06L8.58 42.62C7.15 44.05 4.82 44.05 3.39 42.62C1.96 41.19 1.96 38.86 3.39 37.43L22.73 18.09" stroke="#90278E" stroke-width="2" stroke-linecap="round" stroke-linejoin="round"/>
</g>
<defs>
<clipPath id="clip0_7_2090">
<rect width="44.27" height="43.87" fill="white" transform="translate(0.199951 0.940002)"/>
</clipPath>
</defs>
</svg>
