<svg width="29" height="47" viewBox="0 0 29 47" fill="none" xmlns="http://www.w3.org/2000/svg">
<g clip-path="url(#clip0_7_2075)">
<path d="M14.16 45.18C21.4281 45.18 27.32 39.2881 27.32 32.02C27.32 24.7519 21.4281 18.86 14.16 18.86C6.89193 18.86 1 24.7519 1 32.02C1 39.2881 6.89193 45.18 14.16 45.18Z" stroke="#90278E" stroke-width="2" stroke-linecap="round" stroke-linejoin="round"/>
<path d="M4.76001 22.83V11.34C4.76001 6.15 8.97001 1.94 14.16 1.94C16.75 1.94 19.1 2.99 20.82 4.68C22.51 6.39 23.56 8.74 23.56 11.34V13.22" stroke="#90278E" stroke-width="2" stroke-linecap="round" stroke-linejoin="round"/>
<path d="M14.16 32.16V37.03" stroke="#F6921E" stroke-width="2" stroke-linecap="round" stroke-linejoin="round"/>
<path d="M14.16 33.37C16.1758 33.37 17.81 31.7358 17.81 29.72C17.81 27.7042 16.1758 26.07 14.16 26.07C12.1442 26.07 10.51 27.7042 10.51 29.72C10.51 31.7358 12.1442 33.37 14.16 33.37Z" stroke="#F6921E" stroke-width="2" stroke-linecap="round" stroke-linejoin="round"/>
</g>
<defs>
<clipPath id="clip0_7_2075">
<rect width="28.32" height="45.24" fill="white" transform="translate(0 0.940002)"/>
</clipPath>
</defs>
</svg>
