<svg width="53" height="102" viewBox="0 0 53 102" fill="none" xmlns="http://www.w3.org/2000/svg">
<path d="M34.0449 93.4961C34.0449 95.6641 33.25 97.5189 31.6602 99.0605C30.0703 100.602 28.1914 101.373 26.0234 101.373C23.7591 101.373 21.8561 100.626 20.3145 99.1328C18.7728 97.5911 18.002 95.7122 18.002 93.4961C18.002 91.2799 18.7969 89.4251 20.3867 87.9316C21.9766 86.39 23.8073 85.6191 25.8789 85.6191C28.0951 85.6191 29.998 86.39 31.5879 87.9316C33.2259 89.4733 34.0449 91.3281 34.0449 93.4961ZM26.6016 0.0566406C34.069 0.0566406 40.2357 2.12826 45.1016 6.27148C50.0156 10.4147 52.4727 16.1719 52.4727 23.543C52.4727 29.806 48.7871 37.5866 41.416 46.8848C33.3704 57.002 28.6491 66.6133 27.252 75.7188H24.6504C24.6504 73.9362 24.9154 71.431 25.4453 68.2031C25.9753 64.9271 26.6257 62.0605 27.3965 59.6035C28.1673 57.1465 30.1185 52.3529 33.25 45.2227C34.8398 41.6094 36.1647 37.9961 37.2246 34.3828C38.3327 30.7214 38.8867 27.373 38.8867 24.3379C38.8867 19.1829 37.5618 14.582 34.9121 10.5352C32.2624 6.48828 28.0951 4.46484 22.4102 4.46484C18.5078 4.46484 15.2077 5.52474 12.5098 7.64453C9.86003 9.71615 8.53516 11.6914 8.53516 13.5703C8.53516 14.6302 9.52279 16.2923 11.498 18.5566C13.4733 20.7728 14.4609 22.8444 14.4609 24.7715C14.4609 26.3613 13.8587 27.7585 12.6543 28.9629C11.498 30.1673 10.0768 30.7695 8.39062 30.7695C6.46354 30.7695 4.72917 29.9505 3.1875 28.3125C1.64583 26.6263 0.875 24.1693 0.875 20.9414C0.875 15.9792 3.01888 11.2578 7.30664 6.77734C11.5944 2.29688 18.026 0.0566406 26.6016 0.0566406Z" fill="#BABCBE"/>
</svg>
