<svg width="43" height="43" viewBox="0 0 43 43" fill="none" xmlns="http://www.w3.org/2000/svg">
<path fill-rule="evenodd" clip-rule="evenodd" d="M42.06 21.03C42.06 32.6446 32.6446 42.06 21.03 42.06C9.41545 42.06 0 32.6446 0 21.03C0 9.41545 9.41545 0 21.03 0C32.6446 0 42.06 9.41545 42.06 21.03ZM8 18.7C7.17157 18.7 6.5 19.3716 6.5 20.2C6.5 21.0284 7.17157 21.7 8 21.7H30.0087L22.0693 29.6393C21.4836 30.2251 21.4836 31.1748 22.0693 31.7606C22.6551 32.3464 23.6049 32.3464 24.1907 31.7606L34.0407 21.9106C34.4627 21.4886 34.5807 20.8777 34.3946 20.35C34.5807 19.8223 34.4627 19.2114 34.0407 18.7893L24.1907 8.93934C23.6049 8.35355 22.6551 8.35355 22.0693 8.93934C21.4836 9.52513 21.4836 10.4749 22.0693 11.0607L29.7087 18.7H8Z" fill="#AAA6A6"/>
</svg>
