<svg width="50" height="37" viewBox="0 0 40 27" fill="none" xmlns="http://www.w3.org/2000/svg">
<g clip-path="url(#clip0_5_521)">
<path d="M7.99 14.05C10.6741 14.05 12.85 11.8741 12.85 9.18999C12.85 6.50588 10.6741 4.32999 7.99 4.32999C5.3059 4.32999 3.13 6.50588 3.13 9.18999C3.13 11.8741 5.3059 14.05 7.99 14.05Z" stroke="#90278E" stroke-width="1.2" stroke-linecap="round" stroke-linejoin="round"/>
<path d="M16.41 8.06001C16.41 6.10001 15.25 4.42001 13.58 3.65001C13.99 1.90001 15.55 0.600006 17.43 0.600006C19.62 0.600006 21.39 2.37001 21.39 4.56001C21.39 6.75001 19.62 8.52001 17.43 8.52001C17.07 8.52001 16.72 8.47001 16.39 8.38001C16.39 8.28001 16.41 8.18001 16.41 8.07001V8.06001Z" stroke="#F6921E" stroke-width="1.2" stroke-linecap="round" stroke-linejoin="round"/>
<path d="M25.05 16.01C25.05 16.01 24.73 12.04 21.29 10.46C20.8 11.14 19.36 12.66 16.91 11.82" stroke="#F6921E" stroke-width="1.2" stroke-linecap="round" stroke-linejoin="round"/>
<path d="M13.54 17.45C13.54 17.45 12.4 16.44 11.76 16.27C11.48 16.35 8.91999 19.96 4.45999 16.27C3.64999 16.64 0.769985 18.62 0.609985 23.57C1.53999 23.61 11.84 23.57 11.84 23.57" stroke="#90278E" stroke-width="1.2" stroke-linecap="round" stroke-linejoin="round"/>
<path d="M36.7 10.96C36.7 13.09 34.97 14.82 32.84 14.82C30.71 14.82 28.98 13.09 28.98 10.96C28.98 8.83001 30.71 7.10001 32.84 7.10001C34.97 7.10001 36.7 8.83001 36.7 10.96Z" stroke="#A6A8AB" stroke-width="1.2" stroke-linecap="round" stroke-linejoin="round"/>
<path d="M28.43 17.54C28.43 17.54 29.33 16.73 29.85 16.6C30.08 16.66 32.11 19.54 35.66 16.6C36.31 16.89 38.6 18.47 38.73 22.41C37.99 22.44 29.79 22.41 29.79 22.41" stroke="#A6A8AB" stroke-width="1.2" stroke-linecap="round" stroke-linejoin="round"/>
<path d="M23.54 18.73L19.06 14.19L14.7 18.49H17.36C17.36 18.49 16.94 24.18 13.85 25.63C14.39 25.63 19.96 24.18 21.05 18.67C21.66 18.79 23.53 18.73 23.53 18.73H23.54Z" stroke="#F6921E" stroke-width="1.2" stroke-linecap="round" stroke-linejoin="round"/>
<path d="M26.21 10.75L28.31 8.68001L26.32 6.66001V7.89001C26.32 7.89001 23.69 7.69001 23.01 6.26001C23.01 6.51001 23.68 9.09001 26.23 9.59001C26.17 9.87001 26.2 10.74 26.2 10.74L26.21 10.75Z" fill="#BBBDBF"/>
</g>
<defs>
<clipPath id="clip0_5_521">
<rect width="39.32" height="26.23" fill="white"/>
</clipPath>
</defs>
</svg>
