<svg xmlns="http://www.w3.org/2000/svg" xmlns:xlink="http://www.w3.org/1999/xlink" width="65.081" height="65.082" viewBox="0 0 65.081 65.082">
  <defs>
    <linearGradient id="linear-gradient" x1="-14.32" y1="96.963" x2="-13.32" y2="96.963" gradientUnits="objectBoundingBox">
      <stop offset="0.006" stop-color="#cd93ff"/>
      <stop offset="0.129" stop-color="#c695fe"/>
      <stop offset="0.307" stop-color="#b39bfd"/>
      <stop offset="0.518" stop-color="#93a5fb"/>
      <stop offset="0.755" stop-color="#68b3f9"/>
      <stop offset="1" stop-color="#33c5f6"/>
    </linearGradient>
  </defs>
  <g id="Group_635" data-name="Group 635" transform="translate(-3864.876 -786.212)">
    <g id="Group_632" data-name="Group 632" style="mix-blend-mode: screen;isolation: isolate">
      <path id="Path_3532" data-name="Path 3532" d="M3901.219,840.1a25.146,25.146,0,1,1,25.146-25.146A25.146,25.146,0,0,1,3901.219,840.1Z" fill="#fff"/>
    </g>
    <g id="Group_633" data-name="Group 633" style="mix-blend-mode: multiply;isolation: isolate">
      <path id="Path_3533" data-name="Path 3533" d="M3893.615,851.294a28.739,28.739,0,1,1,28.737-28.739A28.738,28.738,0,0,1,3893.615,851.294Z" fill="#e8e8e8" opacity="0"/>
      <path id="Path_3534" data-name="Path 3534" d="M3893.764,851.074a28.668,28.668,0,1,1,28.667-28.668A28.668,28.668,0,0,1,3893.764,851.074Z" fill="#e7e7e7" opacity="0.02"/>
      <path id="Path_3535" data-name="Path 3535" d="M3893.913,850.854a28.6,28.6,0,1,1,28.6-28.6A28.6,28.6,0,0,1,3893.913,850.854Z" fill="#e7e7e7" opacity="0.039"/>
      <path id="Path_3536" data-name="Path 3536" d="M3894.062,850.635a28.527,28.527,0,1,1,28.526-28.527A28.527,28.527,0,0,1,3894.062,850.635Z" fill="#e6e6e6" opacity="0.059"/>
      <path id="Path_3537" data-name="Path 3537" d="M3894.211,850.415a28.457,28.457,0,1,1,28.456-28.457A28.456,28.456,0,0,1,3894.211,850.415Z" fill="#e6e6e6" opacity="0.078"/>
      <path id="Path_3538" data-name="Path 3538" d="M3894.36,850.2a28.387,28.387,0,1,1,28.386-28.387A28.387,28.387,0,0,1,3894.36,850.2Z" fill="#e6e6e6" opacity="0.098"/>
      <path id="Path_3539" data-name="Path 3539" d="M3894.509,849.976a28.316,28.316,0,1,1,28.315-28.316A28.315,28.315,0,0,1,3894.509,849.976Z" fill="#e5e5e5" opacity="0.118"/>
      <path id="Path_3540" data-name="Path 3540" d="M3894.658,849.757a28.246,28.246,0,1,1,28.245-28.246A28.245,28.245,0,0,1,3894.658,849.757Z" fill="#e5e5e5" opacity="0.137"/>
      <path id="Path_3541" data-name="Path 3541" d="M3894.807,849.537a28.175,28.175,0,1,1,28.175-28.175A28.174,28.174,0,0,1,3894.807,849.537Z" fill="#e5e5e5" opacity="0.157"/>
      <path id="Path_3542" data-name="Path 3542" d="M3894.956,849.318a28.105,28.105,0,1,1,28.1-28.1A28.1,28.1,0,0,1,3894.956,849.318Z" fill="#e4e4e4" opacity="0.176"/>
      <path id="Path_3543" data-name="Path 3543" d="M3895.106,849.1a28.034,28.034,0,1,1,28.033-28.034A28.034,28.034,0,0,1,3895.106,849.1Z" fill="#e4e4e4" opacity="0.196"/>
      <path id="Path_3544" data-name="Path 3544" d="M3895.255,848.879a27.964,27.964,0,1,1,27.963-27.964A27.963,27.963,0,0,1,3895.255,848.879Z" fill="#e4e4e4" opacity="0.216"/>
      <path id="Path_3545" data-name="Path 3545" d="M3895.4,848.659a27.893,27.893,0,1,1,27.893-27.893A27.893,27.893,0,0,1,3895.4,848.659Z" fill="#e3e3e3" opacity="0.235"/>
      <path id="Path_3546" data-name="Path 3546" d="M3895.553,848.439a27.823,27.823,0,1,1,27.822-27.823A27.822,27.822,0,0,1,3895.553,848.439Z" fill="#e3e3e3" opacity="0.255"/>
      <path id="Path_3547" data-name="Path 3547" d="M3895.7,848.22a27.752,27.752,0,1,1,27.752-27.753A27.752,27.752,0,0,1,3895.7,848.22Z" fill="#e2e2e2" opacity="0.275"/>
      <path id="Path_3548" data-name="Path 3548" d="M3895.851,848a27.682,27.682,0,1,1,27.682-27.682A27.681,27.681,0,0,1,3895.851,848Z" fill="#e2e2e2" opacity="0.294"/>
      <path id="Path_3549" data-name="Path 3549" d="M3896,847.781a27.612,27.612,0,1,1,27.611-27.612A27.612,27.612,0,0,1,3896,847.781Z" fill="#e2e2e2" opacity="0.314"/>
      <path id="Path_3550" data-name="Path 3550" d="M3896.149,847.561a27.541,27.541,0,1,1,27.541-27.541A27.54,27.54,0,0,1,3896.149,847.561Z" fill="#e1e1e1" opacity="0.333"/>
      <path id="Path_3551" data-name="Path 3551" d="M3896.3,847.342a27.471,27.471,0,1,1,27.471-27.471A27.471,27.471,0,0,1,3896.3,847.342Z" fill="#e1e1e1" opacity="0.353"/>
      <path id="Path_3552" data-name="Path 3552" d="M3896.447,847.122a27.4,27.4,0,1,1,27.4-27.4A27.4,27.4,0,0,1,3896.447,847.122Z" fill="#e1e1e1" opacity="0.373"/>
      <path id="Path_3553" data-name="Path 3553" d="M3896.6,846.9a27.33,27.33,0,1,1,27.329-27.33A27.33,27.33,0,0,1,3896.6,846.9Z" fill="#e0e0e0" opacity="0.392"/>
      <path id="Path_3554" data-name="Path 3554" d="M3896.746,846.683A27.259,27.259,0,1,1,3924,819.424,27.259,27.259,0,0,1,3896.746,846.683Z" fill="#e0e0e0" opacity="0.412"/>
      <path id="Path_3555" data-name="Path 3555" d="M3896.9,846.464a27.189,27.189,0,1,1,27.188-27.189A27.189,27.189,0,0,1,3896.9,846.464Z" fill="#dfdfdf" opacity="0.431"/>
      <path id="Path_3556" data-name="Path 3556" d="M3897.044,846.244a27.118,27.118,0,1,1,27.118-27.119A27.118,27.118,0,0,1,3897.044,846.244Z" fill="#dfdfdf" opacity="0.451"/>
      <path id="Path_3557" data-name="Path 3557" d="M3897.193,846.024a27.048,27.048,0,1,1,27.048-27.048A27.047,27.047,0,0,1,3897.193,846.024Z" fill="#dfdfdf" opacity="0.471"/>
      <path id="Path_3558" data-name="Path 3558" d="M3897.342,845.8a26.978,26.978,0,1,1,26.977-26.978A26.977,26.977,0,0,1,3897.342,845.8Z" fill="#dedede" opacity="0.49"/>
      <path id="Path_3559" data-name="Path 3559" d="M3897.491,845.585a26.907,26.907,0,1,1,26.907-26.907A26.906,26.906,0,0,1,3897.491,845.585Z" fill="#dedede" opacity="0.51"/>
      <path id="Path_3560" data-name="Path 3560" d="M3897.64,845.366a26.837,26.837,0,1,1,26.837-26.837A26.837,26.837,0,0,1,3897.64,845.366Z" fill="#dedede" opacity="0.529"/>
      <path id="Path_3561" data-name="Path 3561" d="M3897.789,845.146a26.766,26.766,0,1,1,26.766-26.766A26.765,26.765,0,0,1,3897.789,845.146Z" fill="#ddd" opacity="0.549"/>
      <path id="Path_3562" data-name="Path 3562" d="M3897.938,844.927a26.7,26.7,0,1,1,26.7-26.7A26.7,26.7,0,0,1,3897.938,844.927Z" fill="#ddd" opacity="0.569"/>
      <path id="Path_3563" data-name="Path 3563" d="M3898.088,844.707a26.625,26.625,0,1,1,26.625-26.625A26.625,26.625,0,0,1,3898.088,844.707Z" fill="#ddd" opacity="0.588"/>
      <path id="Path_3564" data-name="Path 3564" d="M3898.237,844.488a26.555,26.555,0,1,1,26.554-26.555A26.555,26.555,0,0,1,3898.237,844.488Z" fill="#dcdcdc" opacity="0.608"/>
      <path id="Path_3565" data-name="Path 3565" d="M3898.386,844.268a26.484,26.484,0,1,1,26.484-26.484A26.484,26.484,0,0,1,3898.386,844.268Z" fill="#dcdcdc" opacity="0.627"/>
      <path id="Path_3566" data-name="Path 3566" d="M3898.535,844.049a26.415,26.415,0,1,1,26.414-26.415A26.414,26.414,0,0,1,3898.535,844.049Z" fill="#dbdbdb" opacity="0.647"/>
      <path id="Path_3567" data-name="Path 3567" d="M3898.684,843.829a26.343,26.343,0,1,1,26.343-26.344A26.343,26.343,0,0,1,3898.684,843.829Z" fill="#dbdbdb" opacity="0.667"/>
      <path id="Path_3568" data-name="Path 3568" d="M3898.833,843.61a26.273,26.273,0,1,1,26.273-26.274A26.274,26.274,0,0,1,3898.833,843.61Z" fill="#dbdbdb" opacity="0.686"/>
      <path id="Path_3569" data-name="Path 3569" d="M3898.982,843.39a26.2,26.2,0,1,1,26.2-26.2A26.2,26.2,0,0,1,3898.982,843.39Z" fill="#dadada" opacity="0.706"/>
      <path id="Path_3570" data-name="Path 3570" d="M3899.131,843.17a26.132,26.132,0,1,1,26.132-26.132A26.132,26.132,0,0,1,3899.131,843.17Z" fill="#dadada" opacity="0.725"/>
      <path id="Path_3571" data-name="Path 3571" d="M3899.28,842.951a26.062,26.062,0,1,1,26.062-26.062A26.062,26.062,0,0,1,3899.28,842.951Z" fill="#dadada" opacity="0.745"/>
      <path id="Path_3572" data-name="Path 3572" d="M3899.429,842.731a25.992,25.992,0,1,1,25.992-25.991A25.991,25.991,0,0,1,3899.429,842.731Z" fill="#d9d9d9" opacity="0.765"/>
      <path id="Path_3573" data-name="Path 3573" d="M3899.579,842.512a25.921,25.921,0,1,1,25.92-25.921A25.921,25.921,0,0,1,3899.579,842.512Z" fill="#d9d9d9" opacity="0.784"/>
      <path id="Path_3574" data-name="Path 3574" d="M3899.728,842.292a25.85,25.85,0,1,1,25.85-25.85A25.85,25.85,0,0,1,3899.728,842.292Z" fill="#d8d8d8" opacity="0.804"/>
      <path id="Path_3575" data-name="Path 3575" d="M3899.877,842.073a25.78,25.78,0,1,1,25.78-25.78A25.78,25.78,0,0,1,3899.877,842.073Z" fill="#d8d8d8" opacity="0.824"/>
      <path id="Path_3576" data-name="Path 3576" d="M3900.026,841.853a25.71,25.71,0,1,1,25.709-25.71A25.709,25.709,0,0,1,3900.026,841.853Z" fill="#d8d8d8" opacity="0.843"/>
      <path id="Path_3577" data-name="Path 3577" d="M3900.175,841.634a25.639,25.639,0,1,1,25.639-25.64A25.639,25.639,0,0,1,3900.175,841.634Z" fill="#d7d7d7" opacity="0.863"/>
      <path id="Path_3578" data-name="Path 3578" d="M3900.324,841.414a25.569,25.569,0,1,1,25.569-25.569A25.568,25.568,0,0,1,3900.324,841.414Z" fill="#d7d7d7" opacity="0.882"/>
      <path id="Path_3579" data-name="Path 3579" d="M3900.473,841.2a25.5,25.5,0,1,1,25.5-25.5A25.5,25.5,0,0,1,3900.473,841.2Z" fill="#d7d7d7" opacity="0.902"/>
      <path id="Path_3580" data-name="Path 3580" d="M3900.622,840.975a25.428,25.428,0,1,1,25.428-25.428A25.427,25.427,0,0,1,3900.622,840.975Z" fill="#d6d6d6" opacity="0.922"/>
      <path id="Path_3581" data-name="Path 3581" d="M3900.771,840.755a25.357,25.357,0,1,1,25.358-25.357A25.357,25.357,0,0,1,3900.771,840.755Z" fill="#d6d6d6" opacity="0.941"/>
      <path id="Path_3582" data-name="Path 3582" d="M3900.921,840.536a25.287,25.287,0,1,1,25.287-25.287A25.287,25.287,0,0,1,3900.921,840.536Z" fill="#d6d6d6" opacity="0.961"/>
      <path id="Path_3583" data-name="Path 3583" d="M3901.07,840.316a25.216,25.216,0,1,1,25.216-25.216A25.216,25.216,0,0,1,3901.07,840.316Z" fill="#d5d5d5" opacity="0.98"/>
      <path id="Path_3584" data-name="Path 3584" d="M3901.219,840.1a25.146,25.146,0,1,1,25.146-25.146A25.146,25.146,0,0,1,3901.219,840.1Z" fill="#d5d5d5"/>
    </g>
    <g id="Group_634" data-name="Group 634">
      <circle id="Ellipse_1838" data-name="Ellipse 1838" cx="28.739" cy="28.739" r="28.739" transform="translate(3872.48 786.212)" fill="url(#linear-gradient)"/>
    </g>
  </g>
</svg>
