<svg xmlns="http://www.w3.org/2000/svg" xmlns:xlink="http://www.w3.org/1999/xlink" width="65.081" height="65.082" viewBox="0 0 65.081 65.082">
  <defs>
    <linearGradient id="linear-gradient" y1="0.5" x2="1" y2="0.5" gradientUnits="objectBoundingBox">
      <stop offset="0" stop-color="#8df098"/>
      <stop offset="0.989" stop-color="#2ca6ff"/>
    </linearGradient>
  </defs>
  <g id="Group_625" data-name="Group 625" transform="translate(-3660.703 -786.212)">
    <g id="Group_622" data-name="Group 622" style="mix-blend-mode: screen;isolation: isolate">
      <path id="Path_3401" data-name="Path 3401" d="M3714.588,814.951a25.146,25.146,0,1,1-25.146-25.146A25.146,25.146,0,0,1,3714.588,814.951Z" fill="#fff"/>
    </g>
    <g id="Group_623" data-name="Group 623" style="mix-blend-mode: multiply;isolation: isolate">
      <path id="Path_3402" data-name="Path 3402" d="M3725.784,822.555a28.739,28.739,0,1,1-28.738-28.738A28.738,28.738,0,0,1,3725.784,822.555Z" fill="#e8e8e8" opacity="0"/>
      <path id="Path_3403" data-name="Path 3403" d="M3725.565,822.406a28.668,28.668,0,1,1-28.668-28.668A28.668,28.668,0,0,1,3725.565,822.406Z" fill="#e7e7e7" opacity="0.02"/>
      <path id="Path_3404" data-name="Path 3404" d="M3725.345,822.257a28.6,28.6,0,1,1-28.6-28.6A28.6,28.6,0,0,1,3725.345,822.257Z" fill="#e7e7e7" opacity="0.039"/>
      <path id="Path_3405" data-name="Path 3405" d="M3725.126,822.108a28.527,28.527,0,1,1-28.528-28.527A28.527,28.527,0,0,1,3725.126,822.108Z" fill="#e6e6e6" opacity="0.059"/>
      <path id="Path_3406" data-name="Path 3406" d="M3724.906,821.958a28.457,28.457,0,1,1-28.457-28.456A28.456,28.456,0,0,1,3724.906,821.958Z" fill="#e6e6e6" opacity="0.078"/>
      <path id="Path_3407" data-name="Path 3407" d="M3724.687,821.809a28.386,28.386,0,1,1-28.387-28.385A28.387,28.387,0,0,1,3724.687,821.809Z" fill="#e6e6e6" opacity="0.098"/>
      <path id="Path_3408" data-name="Path 3408" d="M3724.467,821.66a28.316,28.316,0,1,1-28.316-28.315A28.315,28.315,0,0,1,3724.467,821.66Z" fill="#e5e5e5" opacity="0.118"/>
      <path id="Path_3409" data-name="Path 3409" d="M3724.248,821.511A28.246,28.246,0,1,1,3696,793.266,28.246,28.246,0,0,1,3724.248,821.511Z" fill="#e5e5e5" opacity="0.137"/>
      <path id="Path_3410" data-name="Path 3410" d="M3724.028,821.362a28.175,28.175,0,1,1-28.175-28.174A28.175,28.175,0,0,1,3724.028,821.362Z" fill="#e5e5e5" opacity="0.157"/>
      <path id="Path_3411" data-name="Path 3411" d="M3723.808,821.213a28.1,28.1,0,1,1-28.1-28.1A28.1,28.1,0,0,1,3723.808,821.213Z" fill="#e4e4e4" opacity="0.176"/>
      <path id="Path_3412" data-name="Path 3412" d="M3723.589,821.064a28.035,28.035,0,1,1-28.034-28.034A28.034,28.034,0,0,1,3723.589,821.064Z" fill="#e4e4e4" opacity="0.196"/>
      <path id="Path_3413" data-name="Path 3413" d="M3723.369,820.915a27.964,27.964,0,1,1-27.963-27.963A27.963,27.963,0,0,1,3723.369,820.915Z" fill="#e4e4e4" opacity="0.216"/>
      <path id="Path_3414" data-name="Path 3414" d="M3723.15,820.766a27.893,27.893,0,1,1-27.894-27.893A27.893,27.893,0,0,1,3723.15,820.766Z" fill="#e3e3e3" opacity="0.235"/>
      <path id="Path_3415" data-name="Path 3415" d="M3722.93,820.617a27.823,27.823,0,1,1-27.823-27.823A27.823,27.823,0,0,1,3722.93,820.617Z" fill="#e3e3e3" opacity="0.255"/>
      <path id="Path_3416" data-name="Path 3416" d="M3722.711,820.467a27.752,27.752,0,1,1-27.753-27.751A27.752,27.752,0,0,1,3722.711,820.467Z" fill="#e2e2e2" opacity="0.275"/>
      <path id="Path_3417" data-name="Path 3417" d="M3722.491,820.318a27.682,27.682,0,1,1-27.682-27.681A27.682,27.682,0,0,1,3722.491,820.318Z" fill="#e2e2e2" opacity="0.294"/>
      <path id="Path_3418" data-name="Path 3418" d="M3722.272,820.169a27.612,27.612,0,1,1-27.612-27.611A27.612,27.612,0,0,1,3722.272,820.169Z" fill="#e2e2e2" opacity="0.314"/>
      <path id="Path_3419" data-name="Path 3419" d="M3722.052,820.02a27.541,27.541,0,1,1-27.541-27.54A27.541,27.541,0,0,1,3722.052,820.02Z" fill="#e1e1e1" opacity="0.333"/>
      <path id="Path_3420" data-name="Path 3420" d="M3721.833,819.871a27.471,27.471,0,1,1-27.471-27.47A27.471,27.471,0,0,1,3721.833,819.871Z" fill="#e1e1e1" opacity="0.353"/>
      <path id="Path_3421" data-name="Path 3421" d="M3721.613,819.722a27.4,27.4,0,1,1-27.4-27.4A27.4,27.4,0,0,1,3721.613,819.722Z" fill="#e1e1e1" opacity="0.373"/>
      <path id="Path_3422" data-name="Path 3422" d="M3721.394,819.573a27.33,27.33,0,1,1-27.33-27.33A27.33,27.33,0,0,1,3721.394,819.573Z" fill="#e0e0e0" opacity="0.392"/>
      <path id="Path_3423" data-name="Path 3423" d="M3721.174,819.424a27.26,27.26,0,1,1-27.259-27.259A27.259,27.259,0,0,1,3721.174,819.424Z" fill="#e0e0e0" opacity="0.412"/>
      <path id="Path_3424" data-name="Path 3424" d="M3720.954,819.275a27.189,27.189,0,1,1-27.189-27.189A27.189,27.189,0,0,1,3720.954,819.275Z" fill="#dfdfdf" opacity="0.431"/>
      <path id="Path_3425" data-name="Path 3425" d="M3720.735,819.126a27.119,27.119,0,1,1-27.119-27.119A27.118,27.118,0,0,1,3720.735,819.126Z" fill="#dfdfdf" opacity="0.451"/>
      <path id="Path_3426" data-name="Path 3426" d="M3720.515,818.976a27.048,27.048,0,1,1-27.048-27.047A27.048,27.048,0,0,1,3720.515,818.976Z" fill="#dfdfdf" opacity="0.471"/>
      <path id="Path_3427" data-name="Path 3427" d="M3720.3,818.827a26.977,26.977,0,1,1-26.978-26.977A26.977,26.977,0,0,1,3720.3,818.827Z" fill="#dedede" opacity="0.49"/>
      <path id="Path_3428" data-name="Path 3428" d="M3720.076,818.678a26.907,26.907,0,1,1-26.907-26.907A26.907,26.907,0,0,1,3720.076,818.678Z" fill="#dedede" opacity="0.51"/>
      <path id="Path_3429" data-name="Path 3429" d="M3719.857,818.529a26.837,26.837,0,1,1-26.837-26.836A26.837,26.837,0,0,1,3719.857,818.529Z" fill="#dedede" opacity="0.529"/>
      <path id="Path_3430" data-name="Path 3430" d="M3719.637,818.38a26.766,26.766,0,1,1-26.766-26.766A26.766,26.766,0,0,1,3719.637,818.38Z" fill="#ddd" opacity="0.549"/>
      <path id="Path_3431" data-name="Path 3431" d="M3719.418,818.231a26.7,26.7,0,1,1-26.7-26.7A26.7,26.7,0,0,1,3719.418,818.231Z" fill="#ddd" opacity="0.569"/>
      <path id="Path_3432" data-name="Path 3432" d="M3719.2,818.082a26.625,26.625,0,1,1-26.625-26.625A26.625,26.625,0,0,1,3719.2,818.082Z" fill="#ddd" opacity="0.588"/>
      <path id="Path_3433" data-name="Path 3433" d="M3718.979,817.933a26.555,26.555,0,1,1-26.555-26.555A26.555,26.555,0,0,1,3718.979,817.933Z" fill="#dcdcdc" opacity="0.608"/>
      <path id="Path_3434" data-name="Path 3434" d="M3718.759,817.784a26.484,26.484,0,1,1-26.485-26.485A26.485,26.485,0,0,1,3718.759,817.784Z" fill="#dcdcdc" opacity="0.627"/>
      <path id="Path_3435" data-name="Path 3435" d="M3718.539,817.635a26.414,26.414,0,1,1-26.414-26.414A26.413,26.413,0,0,1,3718.539,817.635Z" fill="#dbdbdb" opacity="0.647"/>
      <path id="Path_3436" data-name="Path 3436" d="M3718.32,817.485a26.344,26.344,0,1,1-26.344-26.343A26.344,26.344,0,0,1,3718.32,817.485Z" fill="#dbdbdb" opacity="0.667"/>
      <path id="Path_3437" data-name="Path 3437" d="M3718.1,817.336a26.273,26.273,0,1,1-26.273-26.273A26.273,26.273,0,0,1,3718.1,817.336Z" fill="#dbdbdb" opacity="0.686"/>
      <path id="Path_3438" data-name="Path 3438" d="M3717.881,817.187a26.2,26.2,0,1,1-26.2-26.2A26.2,26.2,0,0,1,3717.881,817.187Z" fill="#dadada" opacity="0.706"/>
      <path id="Path_3439" data-name="Path 3439" d="M3717.661,817.038a26.132,26.132,0,1,1-26.132-26.132A26.132,26.132,0,0,1,3717.661,817.038Z" fill="#dadada" opacity="0.725"/>
      <path id="Path_3440" data-name="Path 3440" d="M3717.442,816.889a26.062,26.062,0,1,1-26.062-26.062A26.062,26.062,0,0,1,3717.442,816.889Z" fill="#dadada" opacity="0.745"/>
      <path id="Path_3441" data-name="Path 3441" d="M3717.222,816.74a25.991,25.991,0,1,1-25.991-25.991A25.991,25.991,0,0,1,3717.222,816.74Z" fill="#d9d9d9" opacity="0.765"/>
      <path id="Path_3442" data-name="Path 3442" d="M3717,816.591a25.921,25.921,0,1,1-25.921-25.921A25.921,25.921,0,0,1,3717,816.591Z" fill="#d9d9d9" opacity="0.784"/>
      <path id="Path_3443" data-name="Path 3443" d="M3716.783,816.442a25.85,25.85,0,1,1-25.85-25.851A25.85,25.85,0,0,1,3716.783,816.442Z" fill="#d8d8d8" opacity="0.804"/>
      <path id="Path_3444" data-name="Path 3444" d="M3716.564,816.293a25.781,25.781,0,1,1-25.781-25.78A25.78,25.78,0,0,1,3716.564,816.293Z" fill="#d8d8d8" opacity="0.824"/>
      <path id="Path_3445" data-name="Path 3445" d="M3716.344,816.144a25.709,25.709,0,1,1-25.71-25.71A25.71,25.71,0,0,1,3716.344,816.144Z" fill="#d8d8d8" opacity="0.843"/>
      <path id="Path_3446" data-name="Path 3446" d="M3716.125,815.994a25.64,25.64,0,1,1-25.64-25.639A25.639,25.639,0,0,1,3716.125,815.994Z" fill="#d7d7d7" opacity="0.863"/>
      <path id="Path_3447" data-name="Path 3447" d="M3715.905,815.845a25.569,25.569,0,1,1-25.569-25.568A25.569,25.569,0,0,1,3715.905,815.845Z" fill="#d7d7d7" opacity="0.882"/>
      <path id="Path_3448" data-name="Path 3448" d="M3715.685,815.7a25.5,25.5,0,1,1-25.5-25.5A25.5,25.5,0,0,1,3715.685,815.7Z" fill="#d7d7d7" opacity="0.902"/>
      <path id="Path_3449" data-name="Path 3449" d="M3715.466,815.547a25.428,25.428,0,1,1-25.428-25.428A25.428,25.428,0,0,1,3715.466,815.547Z" fill="#d6d6d6" opacity="0.922"/>
      <path id="Path_3450" data-name="Path 3450" d="M3715.246,815.4a25.358,25.358,0,1,1-25.357-25.357A25.357,25.357,0,0,1,3715.246,815.4Z" fill="#d6d6d6" opacity="0.941"/>
      <path id="Path_3451" data-name="Path 3451" d="M3715.027,815.249a25.287,25.287,0,1,1-25.287-25.287A25.287,25.287,0,0,1,3715.027,815.249Z" fill="#d6d6d6" opacity="0.961"/>
      <path id="Path_3452" data-name="Path 3452" d="M3714.807,815.1a25.216,25.216,0,1,1-25.216-25.217A25.216,25.216,0,0,1,3714.807,815.1Z" fill="#d5d5d5" opacity="0.98"/>
      <path id="Path_3453" data-name="Path 3453" d="M3714.588,814.951a25.146,25.146,0,1,1-25.146-25.146A25.146,25.146,0,0,1,3714.588,814.951Z" fill="#d5d5d5"/>
    </g>
    <g id="Group_624" data-name="Group 624">
      <circle id="Ellipse_1810" data-name="Ellipse 1810" cx="28.739" cy="28.739" r="28.739" transform="translate(3660.703 786.212)" fill="url(#linear-gradient)"/>
    </g>
  </g>
</svg>
